<?xml version="1.0" encoding="UTF-8"?>
<svg xmlns="http://www.w3.org/2000/svg" xmlns:xlink="http://www.w3.org/1999/xlink" width="720" height="432" viewBox="0 0 720 432">
<defs>
<g>
<g id="glyph-0-0">
<path d="M 1.1875 -0.796875 L 2.734375 -0.796875 L 2.734375 -6.125 L 1.046875 -5.796875 L 1.046875 -6.65625 L 2.71875 -7 L 3.671875 -7 L 3.671875 -0.796875 L 5.21875 -0.796875 L 5.21875 0 L 1.1875 0 Z M 1.1875 -0.796875 "/>
</g>
<g id="glyph-0-1">
<path d="M 1.03125 -7 L 4.75 -7 L 4.75 -6.203125 L 1.90625 -6.203125 L 1.90625 -4.484375 C 2.039062 -4.523438 2.175781 -4.554688 2.3125 -4.578125 C 2.445312 -4.609375 2.582031 -4.625 2.71875 -4.625 C 3.5 -4.625 4.117188 -4.410156 4.578125 -3.984375 C 5.035156 -3.554688 5.265625 -2.976562 5.265625 -2.25 C 5.265625 -1.488281 5.03125 -0.898438 4.5625 -0.484375 C 4.09375 -0.0664062 3.429688 0.140625 2.578125 0.140625 C 2.285156 0.140625 1.988281 0.113281 1.6875 0.0625 C 1.382812 0.0078125 1.066406 -0.0625 0.734375 -0.15625 L 0.734375 -1.109375 C 1.015625 -0.960938 1.304688 -0.847656 1.609375 -0.765625 C 1.910156 -0.691406 2.226562 -0.65625 2.5625 -0.65625 C 3.101562 -0.65625 3.53125 -0.796875 3.84375 -1.078125 C 4.15625 -1.367188 4.3125 -1.757812 4.3125 -2.25 C 4.3125 -2.726562 4.15625 -3.109375 3.84375 -3.390625 C 3.53125 -3.679688 3.101562 -3.828125 2.5625 -3.828125 C 2.3125 -3.828125 2.054688 -3.796875 1.796875 -3.734375 C 1.546875 -3.679688 1.289062 -3.597656 1.03125 -3.484375 Z M 1.03125 -7 "/>
</g>
<g id="glyph-0-2">
<path d="M 1.84375 -0.796875 L 5.140625 -0.796875 L 5.140625 0 L 0.703125 0 L 0.703125 -0.796875 C 1.054688 -1.171875 1.539062 -1.671875 2.15625 -2.296875 C 2.78125 -2.921875 3.175781 -3.320312 3.34375 -3.5 C 3.644531 -3.84375 3.851562 -4.128906 3.96875 -4.359375 C 4.09375 -4.597656 4.15625 -4.832031 4.15625 -5.0625 C 4.15625 -5.4375 4.023438 -5.738281 3.765625 -5.96875 C 3.503906 -6.207031 3.164062 -6.328125 2.75 -6.328125 C 2.445312 -6.328125 2.128906 -6.273438 1.796875 -6.171875 C 1.472656 -6.066406 1.125 -5.910156 0.75 -5.703125 L 0.75 -6.65625 C 1.132812 -6.8125 1.488281 -6.925781 1.8125 -7 C 2.144531 -7.082031 2.445312 -7.125 2.71875 -7.125 C 3.445312 -7.125 4.023438 -6.941406 4.453125 -6.578125 C 4.890625 -6.210938 5.109375 -5.726562 5.109375 -5.125 C 5.109375 -4.832031 5.050781 -4.554688 4.9375 -4.296875 C 4.832031 -4.046875 4.640625 -3.742188 4.359375 -3.390625 C 4.273438 -3.304688 4.023438 -3.046875 3.609375 -2.609375 C 3.191406 -2.179688 2.601562 -1.578125 1.84375 -0.796875 Z M 1.84375 -0.796875 "/>
</g>
<g id="glyph-0-3">
<path d="M 3.046875 -6.375 C 2.554688 -6.375 2.1875 -6.132812 1.9375 -5.65625 C 1.695312 -5.175781 1.578125 -4.453125 1.578125 -3.484375 C 1.578125 -2.523438 1.695312 -1.804688 1.9375 -1.328125 C 2.1875 -0.847656 2.554688 -0.609375 3.046875 -0.609375 C 3.535156 -0.609375 3.898438 -0.847656 4.140625 -1.328125 C 4.390625 -1.804688 4.515625 -2.523438 4.515625 -3.484375 C 4.515625 -4.453125 4.390625 -5.175781 4.140625 -5.65625 C 3.898438 -6.132812 3.535156 -6.375 3.046875 -6.375 Z M 3.046875 -7.125 C 3.828125 -7.125 4.425781 -6.8125 4.84375 -6.1875 C 5.257812 -5.570312 5.46875 -4.671875 5.46875 -3.484375 C 5.46875 -2.304688 5.257812 -1.40625 4.84375 -0.78125 C 4.425781 -0.164062 3.828125 0.140625 3.046875 0.140625 C 2.265625 0.140625 1.664062 -0.164062 1.25 -0.78125 C 0.832031 -1.40625 0.625 -2.304688 0.625 -3.484375 C 0.625 -4.671875 0.832031 -5.570312 1.25 -6.1875 C 1.664062 -6.8125 2.265625 -7.125 3.046875 -7.125 Z M 3.046875 -7.125 "/>
</g>
<g id="glyph-0-4">
<path d="M 1.046875 -0.140625 L 1.046875 -1 C 1.285156 -0.894531 1.523438 -0.8125 1.765625 -0.75 C 2.015625 -0.6875 2.253906 -0.65625 2.484375 -0.65625 C 3.109375 -0.65625 3.585938 -0.863281 3.921875 -1.28125 C 4.253906 -1.707031 4.441406 -2.347656 4.484375 -3.203125 C 4.304688 -2.929688 4.078125 -2.722656 3.796875 -2.578125 C 3.515625 -2.441406 3.207031 -2.375 2.875 -2.375 C 2.175781 -2.375 1.625 -2.582031 1.21875 -3 C 0.8125 -3.425781 0.609375 -4.003906 0.609375 -4.734375 C 0.609375 -5.453125 0.816406 -6.03125 1.234375 -6.46875 C 1.660156 -6.90625 2.226562 -7.125 2.9375 -7.125 C 3.75 -7.125 4.363281 -6.8125 4.78125 -6.1875 C 5.207031 -5.570312 5.421875 -4.671875 5.421875 -3.484375 C 5.421875 -2.390625 5.160156 -1.507812 4.640625 -0.84375 C 4.117188 -0.1875 3.414062 0.140625 2.53125 0.140625 C 2.289062 0.140625 2.050781 0.113281 1.8125 0.0625 C 1.570312 0.0195312 1.316406 -0.046875 1.046875 -0.140625 Z M 2.9375 -3.109375 C 3.363281 -3.109375 3.695312 -3.253906 3.9375 -3.546875 C 4.1875 -3.835938 4.3125 -4.234375 4.3125 -4.734375 C 4.3125 -5.242188 4.1875 -5.644531 3.9375 -5.9375 C 3.695312 -6.226562 3.363281 -6.375 2.9375 -6.375 C 2.507812 -6.375 2.171875 -6.226562 1.921875 -5.9375 C 1.679688 -5.644531 1.5625 -5.242188 1.5625 -4.734375 C 1.5625 -4.234375 1.679688 -3.835938 1.921875 -3.546875 C 2.171875 -3.253906 2.507812 -3.109375 2.9375 -3.109375 Z M 2.9375 -3.109375 "/>
</g>
<g id="glyph-0-5">
<path d="M 0.78125 -7 L 5.28125 -7 L 5.28125 -6.59375 L 2.75 0 L 1.75 0 L 4.140625 -6.203125 L 0.78125 -6.203125 Z M 0.78125 -7 "/>
</g>
<g id="glyph-0-6">
<path d="M 0.9375 -7 L 1.890625 -7 L 1.890625 -4.125 L 5.328125 -4.125 L 5.328125 -7 L 6.265625 -7 L 6.265625 0 L 5.328125 0 L 5.328125 -3.328125 L 1.890625 -3.328125 L 1.890625 0 L 0.9375 0 Z M 0.9375 -7 "/>
</g>
<g id="glyph-0-7">
<path d="M 0.90625 -5.25 L 1.765625 -5.25 L 1.765625 0 L 0.90625 0 Z M 0.90625 -7.28125 L 1.765625 -7.28125 L 1.765625 -6.203125 L 0.90625 -6.203125 Z M 0.90625 -7.28125 "/>
</g>
<g id="glyph-0-8">
<path d="M 4.25 -5.09375 L 4.25 -4.28125 C 4.007812 -4.40625 3.753906 -4.5 3.484375 -4.5625 C 3.222656 -4.625 2.953125 -4.65625 2.671875 -4.65625 C 2.242188 -4.65625 1.921875 -4.585938 1.703125 -4.453125 C 1.492188 -4.328125 1.390625 -4.128906 1.390625 -3.859375 C 1.390625 -3.660156 1.460938 -3.503906 1.609375 -3.390625 C 1.765625 -3.273438 2.078125 -3.164062 2.546875 -3.0625 L 2.84375 -3 C 3.445312 -2.875 3.878906 -2.691406 4.140625 -2.453125 C 4.398438 -2.210938 4.53125 -1.878906 4.53125 -1.453125 C 4.53125 -0.960938 4.335938 -0.570312 3.953125 -0.28125 C 3.566406 0 3.035156 0.140625 2.359375 0.140625 C 2.078125 0.140625 1.785156 0.109375 1.484375 0.046875 C 1.179688 -0.00390625 0.859375 -0.0820312 0.515625 -0.1875 L 0.515625 -1.078125 C 0.835938 -0.910156 1.148438 -0.785156 1.453125 -0.703125 C 1.765625 -0.617188 2.070312 -0.578125 2.375 -0.578125 C 2.78125 -0.578125 3.09375 -0.644531 3.3125 -0.78125 C 3.53125 -0.925781 3.640625 -1.125 3.640625 -1.375 C 3.640625 -1.613281 3.5625 -1.796875 3.40625 -1.921875 C 3.25 -2.046875 2.90625 -2.164062 2.375 -2.28125 L 2.078125 -2.359375 C 1.535156 -2.460938 1.144531 -2.628906 0.90625 -2.859375 C 0.675781 -3.097656 0.5625 -3.421875 0.5625 -3.828125 C 0.5625 -4.316406 0.734375 -4.695312 1.078125 -4.96875 C 1.429688 -5.238281 1.929688 -5.375 2.578125 -5.375 C 2.890625 -5.375 3.1875 -5.347656 3.46875 -5.296875 C 3.75 -5.253906 4.007812 -5.1875 4.25 -5.09375 Z M 4.25 -5.09375 "/>
</g>
<g id="glyph-0-9">
<path d="M 1.75 -6.734375 L 1.75 -5.25 L 3.53125 -5.25 L 3.53125 -4.578125 L 1.75 -4.578125 L 1.75 -1.734375 C 1.75 -1.304688 1.804688 -1.03125 1.921875 -0.90625 C 2.046875 -0.78125 2.285156 -0.71875 2.640625 -0.71875 L 3.53125 -0.71875 L 3.53125 0 L 2.640625 0 C 1.984375 0 1.523438 -0.125 1.265625 -0.375 C 1.015625 -0.625 0.890625 -1.078125 0.890625 -1.734375 L 0.890625 -4.578125 L 0.25 -4.578125 L 0.25 -5.25 L 0.890625 -5.25 L 0.890625 -6.734375 Z M 1.75 -6.734375 "/>
</g>
<g id="glyph-0-10">
<path d="M 2.9375 -4.640625 C 2.476562 -4.640625 2.113281 -4.457031 1.84375 -4.09375 C 1.570312 -3.738281 1.4375 -3.25 1.4375 -2.625 C 1.4375 -1.988281 1.566406 -1.488281 1.828125 -1.125 C 2.097656 -0.769531 2.46875 -0.59375 2.9375 -0.59375 C 3.394531 -0.59375 3.757812 -0.773438 4.03125 -1.140625 C 4.300781 -1.503906 4.4375 -2 4.4375 -2.625 C 4.4375 -3.238281 4.300781 -3.726562 4.03125 -4.09375 C 3.757812 -4.457031 3.394531 -4.640625 2.9375 -4.640625 Z M 2.9375 -5.375 C 3.6875 -5.375 4.273438 -5.128906 4.703125 -4.640625 C 5.128906 -4.148438 5.34375 -3.476562 5.34375 -2.625 C 5.34375 -1.757812 5.128906 -1.082031 4.703125 -0.59375 C 4.273438 -0.101562 3.6875 0.140625 2.9375 0.140625 C 2.1875 0.140625 1.597656 -0.101562 1.171875 -0.59375 C 0.742188 -1.082031 0.53125 -1.757812 0.53125 -2.625 C 0.53125 -3.476562 0.742188 -4.148438 1.171875 -4.640625 C 1.597656 -5.128906 2.1875 -5.375 2.9375 -5.375 Z M 2.9375 -5.375 "/>
</g>
<g id="glyph-0-11">
<path d="M 3.9375 -4.4375 C 3.84375 -4.5 3.738281 -4.539062 3.625 -4.5625 C 3.507812 -4.59375 3.382812 -4.609375 3.25 -4.609375 C 2.757812 -4.609375 2.382812 -4.445312 2.125 -4.125 C 1.863281 -3.8125 1.734375 -3.359375 1.734375 -2.765625 L 1.734375 0 L 0.875 0 L 0.875 -5.25 L 1.734375 -5.25 L 1.734375 -4.4375 C 1.921875 -4.75 2.15625 -4.984375 2.4375 -5.140625 C 2.726562 -5.296875 3.082031 -5.375 3.5 -5.375 C 3.5625 -5.375 3.628906 -5.367188 3.703125 -5.359375 C 3.773438 -5.347656 3.851562 -5.335938 3.9375 -5.328125 Z M 3.9375 -4.4375 "/>
</g>
<g id="glyph-0-12">
<path d="M 4.6875 -5.046875 L 4.6875 -4.234375 C 4.4375 -4.367188 4.1875 -4.46875 3.9375 -4.53125 C 3.695312 -4.601562 3.453125 -4.640625 3.203125 -4.640625 C 2.640625 -4.640625 2.203125 -4.460938 1.890625 -4.109375 C 1.585938 -3.753906 1.4375 -3.257812 1.4375 -2.625 C 1.4375 -1.976562 1.585938 -1.476562 1.890625 -1.125 C 2.203125 -0.769531 2.640625 -0.59375 3.203125 -0.59375 C 3.453125 -0.59375 3.695312 -0.625 3.9375 -0.6875 C 4.1875 -0.757812 4.4375 -0.863281 4.6875 -1 L 4.6875 -0.203125 C 4.4375 -0.0859375 4.179688 -0.00390625 3.921875 0.046875 C 3.671875 0.109375 3.398438 0.140625 3.109375 0.140625 C 2.316406 0.140625 1.6875 -0.109375 1.21875 -0.609375 C 0.757812 -1.109375 0.53125 -1.78125 0.53125 -2.625 C 0.53125 -3.476562 0.765625 -4.148438 1.234375 -4.640625 C 1.703125 -5.128906 2.347656 -5.375 3.171875 -5.375 C 3.429688 -5.375 3.6875 -5.34375 3.9375 -5.28125 C 4.195312 -5.226562 4.445312 -5.148438 4.6875 -5.046875 Z M 4.6875 -5.046875 "/>
</g>
<g id="glyph-0-13">
<path d="M 3.28125 -2.640625 C 2.59375 -2.640625 2.113281 -2.554688 1.84375 -2.390625 C 1.570312 -2.234375 1.4375 -1.960938 1.4375 -1.578125 C 1.4375 -1.273438 1.535156 -1.03125 1.734375 -0.84375 C 1.941406 -0.664062 2.21875 -0.578125 2.5625 -0.578125 C 3.039062 -0.578125 3.421875 -0.75 3.703125 -1.09375 C 3.992188 -1.4375 4.140625 -1.882812 4.140625 -2.4375 L 4.140625 -2.640625 Z M 5 -3 L 5 0 L 4.140625 0 L 4.140625 -0.796875 C 3.941406 -0.472656 3.695312 -0.234375 3.40625 -0.078125 C 3.113281 0.0664062 2.753906 0.140625 2.328125 0.140625 C 1.796875 0.140625 1.367188 -0.0078125 1.046875 -0.3125 C 0.734375 -0.613281 0.578125 -1.019531 0.578125 -1.53125 C 0.578125 -2.113281 0.773438 -2.554688 1.171875 -2.859375 C 1.566406 -3.160156 2.15625 -3.3125 2.9375 -3.3125 L 4.140625 -3.3125 L 4.140625 -3.390625 C 4.140625 -3.785156 4.007812 -4.09375 3.75 -4.3125 C 3.488281 -4.53125 3.125 -4.640625 2.65625 -4.640625 C 2.351562 -4.640625 2.0625 -4.601562 1.78125 -4.53125 C 1.5 -4.457031 1.222656 -4.351562 0.953125 -4.21875 L 0.953125 -5 C 1.273438 -5.125 1.582031 -5.21875 1.875 -5.28125 C 2.175781 -5.34375 2.46875 -5.375 2.75 -5.375 C 3.507812 -5.375 4.070312 -5.175781 4.4375 -4.78125 C 4.8125 -4.382812 5 -3.789062 5 -3 Z M 5 -3 "/>
</g>
<g id="glyph-0-14">
<path d="M 0.90625 -7.28125 L 1.765625 -7.28125 L 1.765625 0 L 0.90625 0 Z M 0.90625 -7.28125 "/>
</g>
<g id="glyph-0-15">
<path d="M 5.140625 -6.765625 L 5.140625 -5.84375 C 4.773438 -6.007812 4.429688 -6.132812 4.109375 -6.21875 C 3.796875 -6.3125 3.488281 -6.359375 3.1875 -6.359375 C 2.675781 -6.359375 2.28125 -6.253906 2 -6.046875 C 1.71875 -5.847656 1.578125 -5.566406 1.578125 -5.203125 C 1.578125 -4.890625 1.671875 -4.65625 1.859375 -4.5 C 2.046875 -4.34375 2.398438 -4.21875 2.921875 -4.125 L 3.484375 -4 C 4.191406 -3.863281 4.710938 -3.625 5.046875 -3.28125 C 5.390625 -2.945312 5.5625 -2.5 5.5625 -1.9375 C 5.5625 -1.25 5.332031 -0.726562 4.875 -0.375 C 4.414062 -0.03125 3.75 0.140625 2.875 0.140625 C 2.539062 0.140625 2.1875 0.0976562 1.8125 0.015625 C 1.445312 -0.0546875 1.0625 -0.164062 0.65625 -0.3125 L 0.65625 -1.28125 C 1.039062 -1.0625 1.414062 -0.894531 1.78125 -0.78125 C 2.15625 -0.675781 2.519531 -0.625 2.875 -0.625 C 3.414062 -0.625 3.832031 -0.726562 4.125 -0.9375 C 4.414062 -1.15625 4.5625 -1.460938 4.5625 -1.859375 C 4.5625 -2.203125 4.457031 -2.46875 4.25 -2.65625 C 4.039062 -2.851562 3.695312 -3 3.21875 -3.09375 L 2.640625 -3.21875 C 1.929688 -3.351562 1.414062 -3.570312 1.09375 -3.875 C 0.78125 -4.175781 0.625 -4.59375 0.625 -5.125 C 0.625 -5.738281 0.84375 -6.222656 1.28125 -6.578125 C 1.71875 -6.941406 2.320312 -7.125 3.09375 -7.125 C 3.414062 -7.125 3.742188 -7.09375 4.078125 -7.03125 C 4.421875 -6.96875 4.773438 -6.878906 5.140625 -6.765625 Z M 5.140625 -6.765625 "/>
</g>
<g id="glyph-0-16">
<path d="M 1.890625 -6.21875 L 1.890625 -3.59375 L 3.078125 -3.59375 C 3.515625 -3.59375 3.851562 -3.703125 4.09375 -3.921875 C 4.332031 -4.148438 4.453125 -4.476562 4.453125 -4.90625 C 4.453125 -5.320312 4.332031 -5.644531 4.09375 -5.875 C 3.851562 -6.101562 3.515625 -6.21875 3.078125 -6.21875 Z M 0.9375 -7 L 3.078125 -7 C 3.859375 -7 4.445312 -6.820312 4.84375 -6.46875 C 5.25 -6.113281 5.453125 -5.59375 5.453125 -4.90625 C 5.453125 -4.21875 5.25 -3.695312 4.84375 -3.34375 C 4.445312 -2.988281 3.859375 -2.8125 3.078125 -2.8125 L 1.890625 -2.8125 L 1.890625 0 L 0.9375 0 Z M 0.9375 -7 "/>
</g>
<g id="glyph-0-17">
<path d="M 3.890625 -3.765625 C 4.347656 -3.671875 4.703125 -3.46875 4.953125 -3.15625 C 5.203125 -2.851562 5.328125 -2.476562 5.328125 -2.03125 C 5.328125 -1.34375 5.085938 -0.804688 4.609375 -0.421875 C 4.140625 -0.046875 3.46875 0.140625 2.59375 0.140625 C 2.300781 0.140625 2 0.109375 1.6875 0.046875 C 1.382812 -0.00390625 1.066406 -0.0859375 0.734375 -0.203125 L 0.734375 -1.125 C 0.992188 -0.96875 1.28125 -0.847656 1.59375 -0.765625 C 1.90625 -0.691406 2.234375 -0.65625 2.578125 -0.65625 C 3.171875 -0.65625 3.617188 -0.769531 3.921875 -1 C 4.234375 -1.238281 4.390625 -1.582031 4.390625 -2.03125 C 4.390625 -2.445312 4.242188 -2.769531 3.953125 -3 C 3.671875 -3.226562 3.269531 -3.34375 2.75 -3.34375 L 1.9375 -3.34375 L 1.9375 -4.125 L 2.796875 -4.125 C 3.253906 -4.125 3.609375 -4.21875 3.859375 -4.40625 C 4.109375 -4.59375 4.234375 -4.859375 4.234375 -5.203125 C 4.234375 -5.566406 4.101562 -5.84375 3.84375 -6.03125 C 3.59375 -6.226562 3.226562 -6.328125 2.75 -6.328125 C 2.488281 -6.328125 2.207031 -6.296875 1.90625 -6.234375 C 1.613281 -6.179688 1.289062 -6.097656 0.9375 -5.984375 L 0.9375 -6.828125 C 1.300781 -6.921875 1.640625 -6.992188 1.953125 -7.046875 C 2.265625 -7.097656 2.5625 -7.125 2.84375 -7.125 C 3.5625 -7.125 4.128906 -6.957031 4.546875 -6.625 C 4.960938 -6.300781 5.171875 -5.863281 5.171875 -5.3125 C 5.171875 -4.925781 5.054688 -4.597656 4.828125 -4.328125 C 4.609375 -4.054688 4.296875 -3.867188 3.890625 -3.765625 Z M 3.890625 -3.765625 "/>
</g>
<g id="glyph-0-18">
<path d="M 3.625 -6.171875 L 1.234375 -2.4375 L 3.625 -2.4375 Z M 3.375 -7 L 4.5625 -7 L 4.5625 -2.4375 L 5.5625 -2.4375 L 5.5625 -1.65625 L 4.5625 -1.65625 L 4.5625 0 L 3.625 0 L 3.625 -1.65625 L 0.46875 -1.65625 L 0.46875 -2.5625 Z M 3.375 -7 "/>
</g>
<g id="glyph-1-0">
<path d="M -8.078125 -7.734375 L -6.828125 -7.734375 C -7.203125 -7.328125 -7.476562 -6.898438 -7.65625 -6.453125 C -7.84375 -6.003906 -7.9375 -5.523438 -7.9375 -5.015625 C -7.9375 -4.015625 -7.628906 -3.25 -7.015625 -2.71875 C -6.398438 -2.1875 -5.515625 -1.921875 -4.359375 -1.921875 C -3.210938 -1.921875 -2.332031 -2.1875 -1.71875 -2.71875 C -1.101562 -3.25 -0.796875 -4.015625 -0.796875 -5.015625 C -0.796875 -5.523438 -0.890625 -6.003906 -1.078125 -6.453125 C -1.265625 -6.898438 -1.539062 -7.328125 -1.90625 -7.734375 L -0.671875 -7.734375 C -0.390625 -7.316406 -0.175781 -6.875 -0.03125 -6.40625 C 0.101562 -5.945312 0.171875 -5.460938 0.171875 -4.953125 C 0.171875 -3.617188 -0.234375 -2.570312 -1.046875 -1.8125 C -1.859375 -1.050781 -2.960938 -0.671875 -4.359375 -0.671875 C -5.765625 -0.671875 -6.875 -1.050781 -7.6875 -1.8125 C -8.5 -2.570312 -8.90625 -3.617188 -8.90625 -4.953125 C -8.90625 -5.472656 -8.832031 -5.960938 -8.6875 -6.421875 C -8.550781 -6.890625 -8.347656 -7.328125 -8.078125 -7.734375 Z M -8.078125 -7.734375 "/>
</g>
<g id="glyph-1-1">
<path d="M 0 -3.4375 L -8.75 -0.09375 L -8.75 -1.328125 L -1.390625 -4.109375 L -8.75 -6.875 L -8.75 -8.109375 L 0 -4.78125 Z M 0 -3.4375 "/>
</g>
<g id="glyph-1-2">
<path d="M -7.78125 -2.359375 L -0.96875 -2.359375 L -0.96875 -3.796875 C -0.96875 -5.003906 -1.238281 -5.882812 -1.78125 -6.4375 C -2.332031 -7 -3.203125 -7.28125 -4.390625 -7.28125 C -5.554688 -7.28125 -6.410156 -7 -6.953125 -6.4375 C -7.503906 -5.882812 -7.78125 -5.003906 -7.78125 -3.796875 Z M -8.75 -1.171875 L -8.75 -3.609375 C -8.75 -5.304688 -8.394531 -6.550781 -7.6875 -7.34375 C -6.988281 -8.132812 -5.890625 -8.53125 -4.390625 -8.53125 C -2.878906 -8.53125 -1.769531 -8.128906 -1.0625 -7.328125 C -0.351562 -6.535156 0 -5.296875 0 -3.609375 L 0 -1.171875 Z M -8.75 -1.171875 "/>
</g>
<g id="glyph-1-3">
</g>
<g id="glyph-1-4">
<path d="M -5.5625 -5.453125 L -9.125 -5.453125 L -9.125 -6.53125 L 0 -6.53125 L 0 -5.453125 L -0.984375 -5.453125 C -0.597656 -5.222656 -0.304688 -4.9375 -0.109375 -4.59375 C 0.078125 -4.25 0.171875 -3.832031 0.171875 -3.34375 C 0.171875 -2.550781 -0.144531 -1.90625 -0.78125 -1.40625 C -1.414062 -0.90625 -2.25 -0.65625 -3.28125 -0.65625 C -4.3125 -0.65625 -5.140625 -0.90625 -5.765625 -1.40625 C -6.398438 -1.90625 -6.71875 -2.550781 -6.71875 -3.34375 C -6.71875 -3.832031 -6.625 -4.25 -6.4375 -4.59375 C -6.25 -4.9375 -5.957031 -5.222656 -5.5625 -5.453125 Z M -3.28125 -1.78125 C -2.488281 -1.78125 -1.863281 -1.941406 -1.40625 -2.265625 C -0.957031 -2.585938 -0.734375 -3.035156 -0.734375 -3.609375 C -0.734375 -4.179688 -0.957031 -4.628906 -1.40625 -4.953125 C -1.863281 -5.285156 -2.488281 -5.453125 -3.28125 -5.453125 C -4.070312 -5.453125 -4.691406 -5.285156 -5.140625 -4.953125 C -5.585938 -4.628906 -5.8125 -4.179688 -5.8125 -3.609375 C -5.8125 -3.035156 -5.585938 -2.585938 -5.140625 -2.265625 C -4.691406 -1.941406 -4.070312 -1.78125 -3.28125 -1.78125 Z M -3.28125 -1.78125 "/>
</g>
<g id="glyph-1-5">
<path d="M -3.546875 -6.75 L -3.03125 -6.75 L -3.03125 -1.78125 C -2.28125 -1.832031 -1.710938 -2.054688 -1.328125 -2.453125 C -0.941406 -2.859375 -0.75 -3.414062 -0.75 -4.125 C -0.75 -4.539062 -0.796875 -4.941406 -0.890625 -5.328125 C -0.992188 -5.722656 -1.148438 -6.113281 -1.359375 -6.5 L -0.328125 -6.5 C -0.171875 -6.101562 -0.0507812 -5.703125 0.03125 -5.296875 C 0.125 -4.890625 0.171875 -4.476562 0.171875 -4.0625 C 0.171875 -3.019531 -0.128906 -2.191406 -0.734375 -1.578125 C -1.347656 -0.960938 -2.175781 -0.65625 -3.21875 -0.65625 C -4.289062 -0.65625 -5.140625 -0.945312 -5.765625 -1.53125 C -6.398438 -2.113281 -6.71875 -2.894531 -6.71875 -3.875 C -6.71875 -4.757812 -6.429688 -5.457031 -5.859375 -5.96875 C -5.296875 -6.488281 -4.523438 -6.75 -3.546875 -6.75 Z M -3.875 -5.671875 C -4.457031 -5.660156 -4.925781 -5.492188 -5.28125 -5.171875 C -5.632812 -4.847656 -5.8125 -4.421875 -5.8125 -3.890625 C -5.8125 -3.285156 -5.640625 -2.800781 -5.296875 -2.4375 C -4.953125 -2.082031 -4.472656 -1.878906 -3.859375 -1.828125 Z M -3.875 -5.671875 "/>
</g>
<g id="glyph-1-6">
<path d="M -3.296875 -4.109375 C -3.296875 -3.242188 -3.195312 -2.640625 -3 -2.296875 C -2.800781 -1.960938 -2.460938 -1.796875 -1.984375 -1.796875 C -1.597656 -1.796875 -1.289062 -1.921875 -1.0625 -2.171875 C -0.84375 -2.429688 -0.734375 -2.773438 -0.734375 -3.203125 C -0.734375 -3.804688 -0.941406 -4.285156 -1.359375 -4.640625 C -1.785156 -5.003906 -2.351562 -5.1875 -3.0625 -5.1875 L -3.296875 -5.1875 Z M -3.75 -6.265625 L 0 -6.265625 L 0 -5.1875 L -1 -5.1875 C -0.601562 -4.9375 -0.304688 -4.628906 -0.109375 -4.265625 C 0.078125 -3.898438 0.171875 -3.453125 0.171875 -2.921875 C 0.171875 -2.242188 -0.015625 -1.707031 -0.390625 -1.3125 C -0.773438 -0.914062 -1.28125 -0.71875 -1.90625 -0.71875 C -2.644531 -0.71875 -3.203125 -0.960938 -3.578125 -1.453125 C -3.953125 -1.953125 -4.140625 -2.691406 -4.140625 -3.671875 L -4.140625 -5.1875 L -4.25 -5.1875 C -4.75 -5.1875 -5.132812 -5.019531 -5.40625 -4.6875 C -5.675781 -4.363281 -5.8125 -3.910156 -5.8125 -3.328125 C -5.8125 -2.953125 -5.765625 -2.582031 -5.671875 -2.21875 C -5.578125 -1.863281 -5.441406 -1.523438 -5.265625 -1.203125 L -6.265625 -1.203125 C -6.421875 -1.597656 -6.535156 -1.976562 -6.609375 -2.34375 C -6.679688 -2.71875 -6.71875 -3.082031 -6.71875 -3.4375 C -6.71875 -4.382812 -6.472656 -5.09375 -5.984375 -5.5625 C -5.492188 -6.03125 -4.75 -6.265625 -3.75 -6.265625 Z M -3.75 -6.265625 "/>
</g>
<g id="glyph-1-7">
<path d="M -8.421875 -2.203125 L -6.5625 -2.203125 L -6.5625 -4.421875 L -5.71875 -4.421875 L -5.71875 -2.203125 L -2.15625 -2.203125 C -1.625 -2.203125 -1.28125 -2.273438 -1.125 -2.421875 C -0.976562 -2.566406 -0.90625 -2.863281 -0.90625 -3.3125 L -0.90625 -4.421875 L 0 -4.421875 L 0 -3.3125 C 0 -2.476562 -0.15625 -1.898438 -0.46875 -1.578125 C -0.78125 -1.265625 -1.34375 -1.109375 -2.15625 -1.109375 L -5.71875 -1.109375 L -5.71875 -0.328125 L -6.5625 -0.328125 L -6.5625 -1.109375 L -8.421875 -1.109375 Z M -8.421875 -2.203125 "/>
</g>
<g id="glyph-1-8">
<path d="M -3.96875 -6.59375 L 0 -6.59375 L 0 -5.515625 L -3.921875 -5.515625 C -4.546875 -5.515625 -5.007812 -5.390625 -5.3125 -5.140625 C -5.625 -4.898438 -5.78125 -4.539062 -5.78125 -4.0625 C -5.78125 -3.476562 -5.59375 -3.015625 -5.21875 -2.671875 C -4.851562 -2.335938 -4.347656 -2.171875 -3.703125 -2.171875 L 0 -2.171875 L 0 -1.09375 L -9.125 -1.09375 L -9.125 -2.171875 L -5.546875 -2.171875 C -5.941406 -2.429688 -6.234375 -2.734375 -6.421875 -3.078125 C -6.617188 -3.429688 -6.71875 -3.835938 -6.71875 -4.296875 C -6.71875 -5.046875 -6.484375 -5.613281 -6.015625 -6 C -5.554688 -6.394531 -4.875 -6.59375 -3.96875 -6.59375 Z M -3.96875 -6.59375 "/>
</g>
<g id="glyph-1-9">
<path d="M -6.375 -5.3125 L -5.34375 -5.3125 C -5.5 -5.007812 -5.613281 -4.691406 -5.6875 -4.359375 C -5.769531 -4.035156 -5.8125 -3.695312 -5.8125 -3.34375 C -5.8125 -2.8125 -5.726562 -2.410156 -5.5625 -2.140625 C -5.40625 -1.867188 -5.160156 -1.734375 -4.828125 -1.734375 C -4.578125 -1.734375 -4.378906 -1.828125 -4.234375 -2.015625 C -4.097656 -2.210938 -3.96875 -2.601562 -3.84375 -3.1875 L -3.75 -3.546875 C -3.59375 -4.316406 -3.363281 -4.863281 -3.0625 -5.1875 C -2.757812 -5.507812 -2.34375 -5.671875 -1.8125 -5.671875 C -1.195312 -5.671875 -0.710938 -5.425781 -0.359375 -4.9375 C -0.00390625 -4.457031 0.171875 -3.796875 0.171875 -2.953125 C 0.171875 -2.597656 0.132812 -2.226562 0.0625 -1.84375 C 0 -1.46875 -0.0976562 -1.070312 -0.234375 -0.65625 L -1.359375 -0.65625 C -1.148438 -1.050781 -0.992188 -1.441406 -0.890625 -1.828125 C -0.785156 -2.210938 -0.734375 -2.597656 -0.734375 -2.984375 C -0.734375 -3.484375 -0.816406 -3.867188 -0.984375 -4.140625 C -1.160156 -4.421875 -1.410156 -4.5625 -1.734375 -4.5625 C -2.023438 -4.5625 -2.25 -4.460938 -2.40625 -4.265625 C -2.5625 -4.066406 -2.710938 -3.632812 -2.859375 -2.96875 L -2.9375 -2.59375 C -3.082031 -1.925781 -3.300781 -1.441406 -3.59375 -1.140625 C -3.882812 -0.847656 -4.28125 -0.703125 -4.78125 -0.703125 C -5.40625 -0.703125 -5.882812 -0.921875 -6.21875 -1.359375 C -6.550781 -1.796875 -6.71875 -2.414062 -6.71875 -3.21875 C -6.71875 -3.613281 -6.6875 -3.988281 -6.625 -4.34375 C -6.570312 -4.695312 -6.488281 -5.019531 -6.375 -5.3125 Z M -6.375 -5.3125 "/>
</g>
<g id="glyph-1-10">
<path d="M -9.109375 -3.71875 C -8.210938 -3.195312 -7.320312 -2.804688 -6.4375 -2.546875 C -5.5625 -2.296875 -4.671875 -2.171875 -3.765625 -2.171875 C -2.867188 -2.171875 -1.976562 -2.296875 -1.09375 -2.546875 C -0.207031 -2.804688 0.679688 -3.195312 1.578125 -3.71875 L 1.578125 -2.78125 C 0.660156 -2.195312 -0.238281 -1.757812 -1.125 -1.46875 C -2.007812 -1.175781 -2.890625 -1.03125 -3.765625 -1.03125 C -4.640625 -1.03125 -5.515625 -1.175781 -6.390625 -1.46875 C -7.273438 -1.757812 -8.179688 -2.195312 -9.109375 -2.78125 Z M -9.109375 -3.71875 "/>
</g>
<g id="glyph-1-11">
<path d="M -5.296875 -6.234375 C -5.785156 -6.503906 -6.144531 -6.828125 -6.375 -7.203125 C -6.601562 -7.578125 -6.71875 -8.019531 -6.71875 -8.53125 C -6.71875 -9.21875 -6.476562 -9.742188 -6 -10.109375 C -5.519531 -10.484375 -4.84375 -10.671875 -3.96875 -10.671875 L 0 -10.671875 L 0 -9.59375 L -3.921875 -9.59375 C -4.554688 -9.59375 -5.023438 -9.476562 -5.328125 -9.25 C -5.628906 -9.03125 -5.78125 -8.691406 -5.78125 -8.234375 C -5.78125 -7.671875 -5.59375 -7.226562 -5.21875 -6.90625 C -4.851562 -6.582031 -4.347656 -6.421875 -3.703125 -6.421875 L 0 -6.421875 L 0 -5.34375 L -3.921875 -5.34375 C -4.554688 -5.34375 -5.023438 -5.226562 -5.328125 -5 C -5.628906 -4.78125 -5.78125 -4.4375 -5.78125 -3.96875 C -5.78125 -3.414062 -5.59375 -2.976562 -5.21875 -2.65625 C -4.851562 -2.332031 -4.347656 -2.171875 -3.703125 -2.171875 L 0 -2.171875 L 0 -1.09375 L -6.5625 -1.09375 L -6.5625 -2.171875 L -5.546875 -2.171875 C -5.941406 -2.421875 -6.234375 -2.71875 -6.421875 -3.0625 C -6.617188 -3.40625 -6.71875 -3.8125 -6.71875 -4.28125 C -6.71875 -4.757812 -6.597656 -5.164062 -6.359375 -5.5 C -6.117188 -5.832031 -5.765625 -6.078125 -5.296875 -6.234375 Z M -5.296875 -6.234375 "/>
</g>
<g id="glyph-1-12">
<path d="M -6.5625 -1.125 L -6.5625 -2.203125 L 0 -2.203125 L 0 -1.125 Z M -9.125 -1.125 L -9.125 -2.203125 L -7.75 -2.203125 L -7.75 -1.125 Z M -9.125 -1.125 "/>
</g>
<g id="glyph-1-13">
<path d="M -9.125 -1.125 L -9.125 -2.203125 L 0 -2.203125 L 0 -1.125 Z M -9.125 -1.125 "/>
</g>
<g id="glyph-1-14">
<path d="M -5.8125 -3.671875 C -5.8125 -3.097656 -5.582031 -2.640625 -5.125 -2.296875 C -4.675781 -1.960938 -4.0625 -1.796875 -3.28125 -1.796875 C -2.488281 -1.796875 -1.867188 -1.960938 -1.421875 -2.296875 C -0.972656 -2.628906 -0.75 -3.085938 -0.75 -3.671875 C -0.75 -4.242188 -0.972656 -4.695312 -1.421875 -5.03125 C -1.878906 -5.375 -2.5 -5.546875 -3.28125 -5.546875 C -4.050781 -5.546875 -4.664062 -5.375 -5.125 -5.03125 C -5.582031 -4.695312 -5.8125 -4.242188 -5.8125 -3.671875 Z M -6.71875 -3.671875 C -6.71875 -4.609375 -6.410156 -5.34375 -5.796875 -5.875 C -5.191406 -6.414062 -4.351562 -6.6875 -3.28125 -6.6875 C -2.207031 -6.6875 -1.363281 -6.414062 -0.75 -5.875 C -0.132812 -5.34375 0.171875 -4.609375 0.171875 -3.671875 C 0.171875 -2.734375 -0.132812 -1.992188 -0.75 -1.453125 C -1.363281 -0.921875 -2.207031 -0.65625 -3.28125 -0.65625 C -4.351562 -0.65625 -5.191406 -0.921875 -5.796875 -1.453125 C -6.410156 -1.992188 -6.71875 -2.734375 -6.71875 -3.671875 Z M -6.71875 -3.671875 "/>
</g>
<g id="glyph-1-15">
<path d="M -3.96875 -6.59375 L 0 -6.59375 L 0 -5.515625 L -3.921875 -5.515625 C -4.546875 -5.515625 -5.007812 -5.390625 -5.3125 -5.140625 C -5.625 -4.898438 -5.78125 -4.539062 -5.78125 -4.0625 C -5.78125 -3.476562 -5.59375 -3.015625 -5.21875 -2.671875 C -4.851562 -2.335938 -4.347656 -2.171875 -3.703125 -2.171875 L 0 -2.171875 L 0 -1.09375 L -6.5625 -1.09375 L -6.5625 -2.171875 L -5.546875 -2.171875 C -5.941406 -2.429688 -6.234375 -2.734375 -6.421875 -3.078125 C -6.617188 -3.429688 -6.71875 -3.835938 -6.71875 -4.296875 C -6.71875 -5.046875 -6.484375 -5.613281 -6.015625 -6 C -5.554688 -6.394531 -4.875 -6.59375 -3.96875 -6.59375 Z M -3.96875 -6.59375 "/>
</g>
<g id="glyph-1-16">
<path d="M -9.109375 -0.96875 L -9.109375 -1.90625 C -8.179688 -2.488281 -7.273438 -2.925781 -6.390625 -3.21875 C -5.515625 -3.507812 -4.640625 -3.65625 -3.765625 -3.65625 C -2.890625 -3.65625 -2.007812 -3.507812 -1.125 -3.21875 C -0.238281 -2.925781 0.660156 -2.488281 1.578125 -1.90625 L 1.578125 -0.96875 C 0.679688 -1.476562 -0.207031 -1.863281 -1.09375 -2.125 C -1.976562 -2.382812 -2.867188 -2.515625 -3.765625 -2.515625 C -4.671875 -2.515625 -5.5625 -2.382812 -6.4375 -2.125 C -7.320312 -1.863281 -8.210938 -1.476562 -9.109375 -0.96875 Z M -9.109375 -0.96875 "/>
</g>
<g id="glyph-2-0">
<path d="M 1.171875 -8.75 L 2.359375 -8.75 L 2.359375 -5.15625 L 6.65625 -5.15625 L 6.65625 -8.75 L 7.84375 -8.75 L 7.84375 0 L 6.65625 0 L 6.65625 -4.171875 L 2.359375 -4.171875 L 2.359375 0 L 1.171875 0 Z M 1.171875 -8.75 "/>
</g>
<g id="glyph-2-1">
<path d="M 1.125 -6.5625 L 2.203125 -6.5625 L 2.203125 0 L 1.125 0 Z M 1.125 -9.125 L 2.203125 -9.125 L 2.203125 -7.75 L 1.125 -7.75 Z M 1.125 -9.125 "/>
</g>
<g id="glyph-2-2">
<path d="M 5.3125 -6.375 L 5.3125 -5.34375 C 5.007812 -5.5 4.691406 -5.613281 4.359375 -5.6875 C 4.035156 -5.769531 3.695312 -5.8125 3.34375 -5.8125 C 2.8125 -5.8125 2.410156 -5.726562 2.140625 -5.5625 C 1.867188 -5.40625 1.734375 -5.160156 1.734375 -4.828125 C 1.734375 -4.578125 1.828125 -4.378906 2.015625 -4.234375 C 2.210938 -4.097656 2.601562 -3.96875 3.1875 -3.84375 L 3.546875 -3.75 C 4.316406 -3.59375 4.863281 -3.363281 5.1875 -3.0625 C 5.507812 -2.757812 5.671875 -2.34375 5.671875 -1.8125 C 5.671875 -1.195312 5.425781 -0.710938 4.9375 -0.359375 C 4.457031 -0.00390625 3.796875 0.171875 2.953125 0.171875 C 2.597656 0.171875 2.226562 0.132812 1.84375 0.0625 C 1.46875 0 1.070312 -0.0976562 0.65625 -0.234375 L 0.65625 -1.359375 C 1.050781 -1.148438 1.441406 -0.992188 1.828125 -0.890625 C 2.210938 -0.785156 2.597656 -0.734375 2.984375 -0.734375 C 3.484375 -0.734375 3.867188 -0.816406 4.140625 -0.984375 C 4.421875 -1.160156 4.5625 -1.410156 4.5625 -1.734375 C 4.5625 -2.023438 4.460938 -2.25 4.265625 -2.40625 C 4.066406 -2.5625 3.632812 -2.710938 2.96875 -2.859375 L 2.59375 -2.9375 C 1.925781 -3.082031 1.441406 -3.300781 1.140625 -3.59375 C 0.847656 -3.882812 0.703125 -4.28125 0.703125 -4.78125 C 0.703125 -5.40625 0.921875 -5.882812 1.359375 -6.21875 C 1.796875 -6.550781 2.414062 -6.71875 3.21875 -6.71875 C 3.613281 -6.71875 3.988281 -6.6875 4.34375 -6.625 C 4.695312 -6.570312 5.019531 -6.488281 5.3125 -6.375 Z M 5.3125 -6.375 "/>
</g>
<g id="glyph-2-3">
<path d="M 2.203125 -8.421875 L 2.203125 -6.5625 L 4.421875 -6.5625 L 4.421875 -5.71875 L 2.203125 -5.71875 L 2.203125 -2.15625 C 2.203125 -1.625 2.273438 -1.28125 2.421875 -1.125 C 2.566406 -0.976562 2.863281 -0.90625 3.3125 -0.90625 L 4.421875 -0.90625 L 4.421875 0 L 3.3125 0 C 2.476562 0 1.898438 -0.15625 1.578125 -0.46875 C 1.265625 -0.78125 1.109375 -1.34375 1.109375 -2.15625 L 1.109375 -5.71875 L 0.328125 -5.71875 L 0.328125 -6.5625 L 1.109375 -6.5625 L 1.109375 -8.421875 Z M 2.203125 -8.421875 "/>
</g>
<g id="glyph-2-4">
<path d="M 3.671875 -5.8125 C 3.097656 -5.8125 2.640625 -5.582031 2.296875 -5.125 C 1.960938 -4.675781 1.796875 -4.0625 1.796875 -3.28125 C 1.796875 -2.488281 1.960938 -1.867188 2.296875 -1.421875 C 2.628906 -0.972656 3.085938 -0.75 3.671875 -0.75 C 4.242188 -0.75 4.695312 -0.972656 5.03125 -1.421875 C 5.375 -1.878906 5.546875 -2.5 5.546875 -3.28125 C 5.546875 -4.050781 5.375 -4.664062 5.03125 -5.125 C 4.695312 -5.582031 4.242188 -5.8125 3.671875 -5.8125 Z M 3.671875 -6.71875 C 4.609375 -6.71875 5.34375 -6.410156 5.875 -5.796875 C 6.414062 -5.191406 6.6875 -4.351562 6.6875 -3.28125 C 6.6875 -2.207031 6.414062 -1.363281 5.875 -0.75 C 5.34375 -0.132812 4.609375 0.171875 3.671875 0.171875 C 2.734375 0.171875 1.992188 -0.132812 1.453125 -0.75 C 0.921875 -1.363281 0.65625 -2.207031 0.65625 -3.28125 C 0.65625 -4.351562 0.921875 -5.191406 1.453125 -5.796875 C 1.992188 -6.410156 2.734375 -6.71875 3.671875 -6.71875 Z M 3.671875 -6.71875 "/>
</g>
<g id="glyph-2-5">
<path d="M 4.9375 -5.5625 C 4.8125 -5.625 4.675781 -5.671875 4.53125 -5.703125 C 4.394531 -5.742188 4.238281 -5.765625 4.0625 -5.765625 C 3.457031 -5.765625 2.988281 -5.566406 2.65625 -5.171875 C 2.332031 -4.773438 2.171875 -4.203125 2.171875 -3.453125 L 2.171875 0 L 1.09375 0 L 1.09375 -6.5625 L 2.171875 -6.5625 L 2.171875 -5.546875 C 2.398438 -5.941406 2.695312 -6.234375 3.0625 -6.421875 C 3.425781 -6.617188 3.867188 -6.71875 4.390625 -6.71875 C 4.460938 -6.71875 4.539062 -6.710938 4.625 -6.703125 C 4.71875 -6.691406 4.816406 -6.675781 4.921875 -6.65625 Z M 4.9375 -5.5625 "/>
</g>
<g id="glyph-2-6">
<path d="M 5.859375 -6.3125 L 5.859375 -5.296875 C 5.546875 -5.472656 5.238281 -5.601562 4.9375 -5.6875 C 4.632812 -5.769531 4.328125 -5.8125 4.015625 -5.8125 C 3.304688 -5.8125 2.757812 -5.585938 2.375 -5.140625 C 1.988281 -4.703125 1.796875 -4.082031 1.796875 -3.28125 C 1.796875 -2.476562 1.988281 -1.851562 2.375 -1.40625 C 2.757812 -0.96875 3.304688 -0.75 4.015625 -0.75 C 4.328125 -0.75 4.632812 -0.789062 4.9375 -0.875 C 5.238281 -0.957031 5.546875 -1.082031 5.859375 -1.25 L 5.859375 -0.25 C 5.554688 -0.113281 5.242188 -0.0078125 4.921875 0.0625 C 4.597656 0.132812 4.253906 0.171875 3.890625 0.171875 C 2.898438 0.171875 2.113281 -0.132812 1.53125 -0.75 C 0.945312 -1.375 0.65625 -2.21875 0.65625 -3.28125 C 0.65625 -4.34375 0.945312 -5.179688 1.53125 -5.796875 C 2.125 -6.410156 2.9375 -6.71875 3.96875 -6.71875 C 4.289062 -6.71875 4.609375 -6.679688 4.921875 -6.609375 C 5.242188 -6.546875 5.554688 -6.445312 5.859375 -6.3125 Z M 5.859375 -6.3125 "/>
</g>
<g id="glyph-2-7">
<path d="M 4.109375 -3.296875 C 3.242188 -3.296875 2.640625 -3.195312 2.296875 -3 C 1.960938 -2.800781 1.796875 -2.460938 1.796875 -1.984375 C 1.796875 -1.597656 1.921875 -1.289062 2.171875 -1.0625 C 2.429688 -0.84375 2.773438 -0.734375 3.203125 -0.734375 C 3.804688 -0.734375 4.285156 -0.941406 4.640625 -1.359375 C 5.003906 -1.785156 5.1875 -2.351562 5.1875 -3.0625 L 5.1875 -3.296875 Z M 6.265625 -3.75 L 6.265625 0 L 5.1875 0 L 5.1875 -1 C 4.9375 -0.601562 4.628906 -0.304688 4.265625 -0.109375 C 3.898438 0.078125 3.453125 0.171875 2.921875 0.171875 C 2.242188 0.171875 1.707031 -0.015625 1.3125 -0.390625 C 0.914062 -0.773438 0.71875 -1.28125 0.71875 -1.90625 C 0.71875 -2.644531 0.960938 -3.203125 1.453125 -3.578125 C 1.953125 -3.953125 2.691406 -4.140625 3.671875 -4.140625 L 5.1875 -4.140625 L 5.1875 -4.25 C 5.1875 -4.75 5.019531 -5.132812 4.6875 -5.40625 C 4.363281 -5.675781 3.910156 -5.8125 3.328125 -5.8125 C 2.953125 -5.8125 2.582031 -5.765625 2.21875 -5.671875 C 1.863281 -5.578125 1.523438 -5.441406 1.203125 -5.265625 L 1.203125 -6.265625 C 1.597656 -6.421875 1.976562 -6.535156 2.34375 -6.609375 C 2.71875 -6.679688 3.082031 -6.71875 3.4375 -6.71875 C 4.382812 -6.71875 5.09375 -6.472656 5.5625 -5.984375 C 6.03125 -5.492188 6.265625 -4.75 6.265625 -3.75 Z M 6.265625 -3.75 "/>
</g>
<g id="glyph-2-8">
<path d="M 1.125 -9.125 L 2.203125 -9.125 L 2.203125 0 L 1.125 0 Z M 1.125 -9.125 "/>
</g>
<g id="glyph-2-9">
</g>
<g id="glyph-2-10">
<path d="M 3.71875 -9.109375 C 3.195312 -8.210938 2.804688 -7.320312 2.546875 -6.4375 C 2.296875 -5.5625 2.171875 -4.671875 2.171875 -3.765625 C 2.171875 -2.867188 2.296875 -1.976562 2.546875 -1.09375 C 2.804688 -0.207031 3.195312 0.679688 3.71875 1.578125 L 2.78125 1.578125 C 2.195312 0.660156 1.757812 -0.238281 1.46875 -1.125 C 1.175781 -2.007812 1.03125 -2.890625 1.03125 -3.765625 C 1.03125 -4.640625 1.175781 -5.515625 1.46875 -6.390625 C 1.757812 -7.273438 2.195312 -8.179688 2.78125 -9.109375 Z M 3.71875 -9.109375 "/>
</g>
<g id="glyph-2-11">
<path d="M 1.484375 -1 L 3.421875 -1 L 3.421875 -7.671875 L 1.3125 -7.25 L 1.3125 -8.328125 L 3.40625 -8.75 L 4.59375 -8.75 L 4.59375 -1 L 6.53125 -1 L 6.53125 0 L 1.484375 0 Z M 1.484375 -1 "/>
</g>
<g id="glyph-2-12">
<path d="M 1.3125 -0.1875 L 1.3125 -1.265625 C 1.613281 -1.117188 1.914062 -1.007812 2.21875 -0.9375 C 2.519531 -0.863281 2.820312 -0.828125 3.125 -0.828125 C 3.90625 -0.828125 4.5 -1.085938 4.90625 -1.609375 C 5.320312 -2.140625 5.554688 -2.941406 5.609375 -4.015625 C 5.390625 -3.671875 5.101562 -3.410156 4.75 -3.234375 C 4.40625 -3.054688 4.019531 -2.96875 3.59375 -2.96875 C 2.71875 -2.96875 2.023438 -3.226562 1.515625 -3.75 C 1.003906 -4.28125 0.75 -5.007812 0.75 -5.9375 C 0.75 -6.832031 1.015625 -7.550781 1.546875 -8.09375 C 2.078125 -8.632812 2.785156 -8.90625 3.671875 -8.90625 C 4.679688 -8.90625 5.453125 -8.515625 5.984375 -7.734375 C 6.523438 -6.960938 6.796875 -5.835938 6.796875 -4.359375 C 6.796875 -2.984375 6.46875 -1.882812 5.8125 -1.0625 C 5.15625 -0.238281 4.273438 0.171875 3.171875 0.171875 C 2.867188 0.171875 2.566406 0.140625 2.265625 0.078125 C 1.960938 0.0234375 1.644531 -0.0625 1.3125 -0.1875 Z M 3.671875 -3.890625 C 4.203125 -3.890625 4.625 -4.070312 4.9375 -4.4375 C 5.25 -4.800781 5.40625 -5.300781 5.40625 -5.9375 C 5.40625 -6.5625 5.25 -7.054688 4.9375 -7.421875 C 4.625 -7.785156 4.203125 -7.96875 3.671875 -7.96875 C 3.140625 -7.96875 2.71875 -7.785156 2.40625 -7.421875 C 2.101562 -7.054688 1.953125 -6.5625 1.953125 -5.9375 C 1.953125 -5.300781 2.101562 -4.800781 2.40625 -4.4375 C 2.71875 -4.070312 3.140625 -3.890625 3.671875 -3.890625 Z M 3.671875 -3.890625 "/>
</g>
<g id="glyph-2-13">
<path d="M 3.8125 -7.96875 C 3.207031 -7.96875 2.75 -7.664062 2.4375 -7.0625 C 2.132812 -6.46875 1.984375 -5.566406 1.984375 -4.359375 C 1.984375 -3.160156 2.132812 -2.257812 2.4375 -1.65625 C 2.75 -1.0625 3.207031 -0.765625 3.8125 -0.765625 C 4.425781 -0.765625 4.882812 -1.0625 5.1875 -1.65625 C 5.5 -2.257812 5.65625 -3.160156 5.65625 -4.359375 C 5.65625 -5.566406 5.5 -6.46875 5.1875 -7.0625 C 4.882812 -7.664062 4.425781 -7.96875 3.8125 -7.96875 Z M 3.8125 -8.90625 C 4.789062 -8.90625 5.539062 -8.515625 6.0625 -7.734375 C 6.582031 -6.960938 6.84375 -5.835938 6.84375 -4.359375 C 6.84375 -2.890625 6.582031 -1.765625 6.0625 -0.984375 C 5.539062 -0.210938 4.789062 0.171875 3.8125 0.171875 C 2.832031 0.171875 2.082031 -0.210938 1.5625 -0.984375 C 1.050781 -1.765625 0.796875 -2.890625 0.796875 -4.359375 C 0.796875 -5.835938 1.050781 -6.960938 1.5625 -7.734375 C 2.082031 -8.515625 2.832031 -8.90625 3.8125 -8.90625 Z M 3.8125 -8.90625 "/>
</g>
<g id="glyph-2-14">
<path d="M 0.59375 -3.765625 L 3.75 -3.765625 L 3.75 -2.8125 L 0.59375 -2.8125 Z M 0.59375 -3.765625 "/>
</g>
<g id="glyph-2-15">
<path d="M 2.296875 -1 L 6.4375 -1 L 6.4375 0 L 0.875 0 L 0.875 -1 C 1.320312 -1.457031 1.929688 -2.078125 2.703125 -2.859375 C 3.484375 -3.648438 3.972656 -4.160156 4.171875 -4.390625 C 4.554688 -4.804688 4.820312 -5.160156 4.96875 -5.453125 C 5.125 -5.753906 5.203125 -6.046875 5.203125 -6.328125 C 5.203125 -6.796875 5.035156 -7.175781 4.703125 -7.46875 C 4.378906 -7.757812 3.957031 -7.90625 3.4375 -7.90625 C 3.0625 -7.90625 2.664062 -7.84375 2.25 -7.71875 C 1.84375 -7.59375 1.40625 -7.394531 0.9375 -7.125 L 0.9375 -8.328125 C 1.414062 -8.515625 1.859375 -8.65625 2.265625 -8.75 C 2.679688 -8.851562 3.0625 -8.90625 3.40625 -8.90625 C 4.3125 -8.90625 5.035156 -8.675781 5.578125 -8.21875 C 6.117188 -7.769531 6.390625 -7.164062 6.390625 -6.40625 C 6.390625 -6.050781 6.320312 -5.710938 6.1875 -5.390625 C 6.050781 -5.066406 5.804688 -4.6875 5.453125 -4.25 C 5.347656 -4.132812 5.035156 -3.804688 4.515625 -3.265625 C 3.992188 -2.722656 3.253906 -1.96875 2.296875 -1 Z M 2.296875 -1 "/>
</g>
<g id="glyph-2-16">
<path d="M 4.875 -4.71875 C 5.4375 -4.59375 5.875 -4.335938 6.1875 -3.953125 C 6.507812 -3.578125 6.671875 -3.109375 6.671875 -2.546875 C 6.671875 -1.679688 6.375 -1.007812 5.78125 -0.53125 C 5.1875 -0.0625 4.34375 0.171875 3.25 0.171875 C 2.882812 0.171875 2.503906 0.132812 2.109375 0.0625 C 1.722656 -0.0078125 1.328125 -0.117188 0.921875 -0.265625 L 0.921875 -1.40625 C 1.242188 -1.21875 1.597656 -1.070312 1.984375 -0.96875 C 2.378906 -0.875 2.789062 -0.828125 3.21875 -0.828125 C 3.957031 -0.828125 4.519531 -0.972656 4.90625 -1.265625 C 5.300781 -1.554688 5.5 -1.984375 5.5 -2.546875 C 5.5 -3.054688 5.316406 -3.457031 4.953125 -3.75 C 4.585938 -4.039062 4.085938 -4.1875 3.453125 -4.1875 L 2.421875 -4.1875 L 2.421875 -5.15625 L 3.5 -5.15625 C 4.070312 -5.15625 4.515625 -5.269531 4.828125 -5.5 C 5.140625 -5.738281 5.296875 -6.078125 5.296875 -6.515625 C 5.296875 -6.960938 5.132812 -7.304688 4.8125 -7.546875 C 4.5 -7.785156 4.046875 -7.90625 3.453125 -7.90625 C 3.117188 -7.90625 2.765625 -7.867188 2.390625 -7.796875 C 2.023438 -7.734375 1.617188 -7.628906 1.171875 -7.484375 L 1.171875 -8.53125 C 1.628906 -8.65625 2.050781 -8.75 2.4375 -8.8125 C 2.832031 -8.875 3.203125 -8.90625 3.546875 -8.90625 C 4.453125 -8.90625 5.164062 -8.703125 5.6875 -8.296875 C 6.207031 -7.890625 6.46875 -7.335938 6.46875 -6.640625 C 6.46875 -6.148438 6.328125 -5.738281 6.046875 -5.40625 C 5.773438 -5.070312 5.382812 -4.84375 4.875 -4.71875 Z M 4.875 -4.71875 "/>
</g>
<g id="glyph-2-17">
<path d="M 0.96875 -9.109375 L 1.90625 -9.109375 C 2.488281 -8.179688 2.925781 -7.273438 3.21875 -6.390625 C 3.507812 -5.515625 3.65625 -4.640625 3.65625 -3.765625 C 3.65625 -2.890625 3.507812 -2.007812 3.21875 -1.125 C 2.925781 -0.238281 2.488281 0.660156 1.90625 1.578125 L 0.96875 1.578125 C 1.476562 0.679688 1.863281 -0.207031 2.125 -1.09375 C 2.382812 -1.976562 2.515625 -2.867188 2.515625 -3.765625 C 2.515625 -4.671875 2.382812 -5.5625 2.125 -6.4375 C 1.863281 -7.320312 1.476562 -8.210938 0.96875 -9.109375 Z M 0.96875 -9.109375 "/>
</g>
<g id="glyph-2-18">
<path d="M 6.59375 -3.96875 L 6.59375 0 L 5.515625 0 L 5.515625 -3.921875 C 5.515625 -4.546875 5.390625 -5.007812 5.140625 -5.3125 C 4.898438 -5.625 4.539062 -5.78125 4.0625 -5.78125 C 3.476562 -5.78125 3.015625 -5.59375 2.671875 -5.21875 C 2.335938 -4.851562 2.171875 -4.347656 2.171875 -3.703125 L 2.171875 0 L 1.09375 0 L 1.09375 -6.5625 L 2.171875 -6.5625 L 2.171875 -5.546875 C 2.429688 -5.941406 2.734375 -6.234375 3.078125 -6.421875 C 3.429688 -6.617188 3.835938 -6.71875 4.296875 -6.71875 C 5.046875 -6.71875 5.613281 -6.484375 6 -6.015625 C 6.394531 -5.554688 6.59375 -4.875 6.59375 -3.96875 Z M 6.59375 -3.96875 "/>
</g>
<g id="glyph-2-19">
<path d="M 5.453125 -5.5625 L 5.453125 -9.125 L 6.53125 -9.125 L 6.53125 0 L 5.453125 0 L 5.453125 -0.984375 C 5.222656 -0.597656 4.9375 -0.304688 4.59375 -0.109375 C 4.25 0.078125 3.832031 0.171875 3.34375 0.171875 C 2.550781 0.171875 1.90625 -0.144531 1.40625 -0.78125 C 0.90625 -1.414062 0.65625 -2.25 0.65625 -3.28125 C 0.65625 -4.3125 0.90625 -5.140625 1.40625 -5.765625 C 1.90625 -6.398438 2.550781 -6.71875 3.34375 -6.71875 C 3.832031 -6.71875 4.25 -6.625 4.59375 -6.4375 C 4.9375 -6.25 5.222656 -5.957031 5.453125 -5.5625 Z M 1.78125 -3.28125 C 1.78125 -2.488281 1.941406 -1.863281 2.265625 -1.40625 C 2.585938 -0.957031 3.035156 -0.734375 3.609375 -0.734375 C 4.179688 -0.734375 4.628906 -0.957031 4.953125 -1.40625 C 5.285156 -1.863281 5.453125 -2.488281 5.453125 -3.28125 C 5.453125 -4.070312 5.285156 -4.691406 4.953125 -5.140625 C 4.628906 -5.585938 4.179688 -5.8125 3.609375 -5.8125 C 3.035156 -5.8125 2.585938 -5.585938 2.265625 -5.140625 C 1.941406 -4.691406 1.78125 -4.070312 1.78125 -3.28125 Z M 1.78125 -3.28125 "/>
</g>
<g id="glyph-2-20">
<path d="M 6.421875 -8.46875 L 6.421875 -7.3125 C 5.972656 -7.519531 5.546875 -7.675781 5.140625 -7.78125 C 4.742188 -7.894531 4.363281 -7.953125 4 -7.953125 C 3.351562 -7.953125 2.851562 -7.828125 2.5 -7.578125 C 2.15625 -7.328125 1.984375 -6.96875 1.984375 -6.5 C 1.984375 -6.113281 2.097656 -5.820312 2.328125 -5.625 C 2.554688 -5.425781 3 -5.269531 3.65625 -5.15625 L 4.359375 -5 C 5.242188 -4.832031 5.894531 -4.535156 6.3125 -4.109375 C 6.738281 -3.691406 6.953125 -3.128906 6.953125 -2.421875 C 6.953125 -1.566406 6.664062 -0.921875 6.09375 -0.484375 C 5.53125 -0.046875 4.695312 0.171875 3.59375 0.171875 C 3.1875 0.171875 2.75 0.125 2.28125 0.03125 C 1.8125 -0.0625 1.328125 -0.203125 0.828125 -0.390625 L 0.828125 -1.609375 C 1.304688 -1.335938 1.773438 -1.132812 2.234375 -1 C 2.703125 -0.863281 3.15625 -0.796875 3.59375 -0.796875 C 4.269531 -0.796875 4.789062 -0.925781 5.15625 -1.1875 C 5.53125 -1.457031 5.71875 -1.835938 5.71875 -2.328125 C 5.71875 -2.753906 5.582031 -3.085938 5.3125 -3.328125 C 5.050781 -3.578125 4.617188 -3.757812 4.015625 -3.875 L 3.296875 -4.015625 C 2.410156 -4.191406 1.769531 -4.46875 1.375 -4.84375 C 0.988281 -5.21875 0.796875 -5.738281 0.796875 -6.40625 C 0.796875 -7.1875 1.066406 -7.796875 1.609375 -8.234375 C 2.148438 -8.679688 2.898438 -8.90625 3.859375 -8.90625 C 4.273438 -8.90625 4.691406 -8.867188 5.109375 -8.796875 C 5.535156 -8.722656 5.972656 -8.613281 6.421875 -8.46875 Z M 6.421875 -8.46875 "/>
</g>
<g id="glyph-2-21">
<path d="M 2.359375 -7.78125 L 2.359375 -4.484375 L 3.84375 -4.484375 C 4.394531 -4.484375 4.820312 -4.625 5.125 -4.90625 C 5.425781 -5.195312 5.578125 -5.609375 5.578125 -6.140625 C 5.578125 -6.660156 5.425781 -7.0625 5.125 -7.34375 C 4.820312 -7.632812 4.394531 -7.78125 3.84375 -7.78125 Z M 1.171875 -8.75 L 3.84375 -8.75 C 4.832031 -8.75 5.578125 -8.523438 6.078125 -8.078125 C 6.578125 -7.640625 6.828125 -6.992188 6.828125 -6.140625 C 6.828125 -5.273438 6.578125 -4.617188 6.078125 -4.171875 C 5.578125 -3.734375 4.832031 -3.515625 3.84375 -3.515625 L 2.359375 -3.515625 L 2.359375 0 L 1.171875 0 Z M 1.171875 -8.75 "/>
</g>
<g id="glyph-2-22">
<path d="M 2.171875 -0.984375 L 2.171875 2.5 L 1.09375 2.5 L 1.09375 -6.5625 L 2.171875 -6.5625 L 2.171875 -5.5625 C 2.398438 -5.957031 2.6875 -6.25 3.03125 -6.4375 C 3.375 -6.625 3.785156 -6.71875 4.265625 -6.71875 C 5.066406 -6.71875 5.71875 -6.398438 6.21875 -5.765625 C 6.71875 -5.140625 6.96875 -4.3125 6.96875 -3.28125 C 6.96875 -2.25 6.71875 -1.414062 6.21875 -0.78125 C 5.71875 -0.144531 5.066406 0.171875 4.265625 0.171875 C 3.785156 0.171875 3.375 0.078125 3.03125 -0.109375 C 2.6875 -0.304688 2.398438 -0.597656 2.171875 -0.984375 Z M 5.84375 -3.28125 C 5.84375 -4.070312 5.675781 -4.691406 5.34375 -5.140625 C 5.019531 -5.585938 4.578125 -5.8125 4.015625 -5.8125 C 3.441406 -5.8125 2.988281 -5.585938 2.65625 -5.140625 C 2.332031 -4.691406 2.171875 -4.070312 2.171875 -3.28125 C 2.171875 -2.488281 2.332031 -1.863281 2.65625 -1.40625 C 2.988281 -0.957031 3.441406 -0.734375 4.015625 -0.734375 C 4.578125 -0.734375 5.019531 -0.957031 5.34375 -1.40625 C 5.675781 -1.863281 5.84375 -2.488281 5.84375 -3.28125 Z M 5.84375 -3.28125 "/>
</g>
<g id="glyph-2-23">
<path d="M 1.125 -6.5625 L 2.203125 -6.5625 L 2.203125 0.125 C 2.203125 0.957031 2.039062 1.5625 1.71875 1.9375 C 1.40625 2.3125 0.894531 2.5 0.1875 2.5 L -0.21875 2.5 L -0.21875 1.578125 L 0.078125 1.578125 C 0.484375 1.578125 0.757812 1.484375 0.90625 1.296875 C 1.050781 1.109375 1.125 0.71875 1.125 0.125 Z M 1.125 -9.125 L 2.203125 -9.125 L 2.203125 -7.75 L 1.125 -7.75 Z M 1.125 -9.125 "/>
</g>
<g id="glyph-2-24">
<path d="M 6.75 -3.546875 L 6.75 -3.03125 L 1.78125 -3.03125 C 1.832031 -2.28125 2.054688 -1.710938 2.453125 -1.328125 C 2.859375 -0.941406 3.414062 -0.75 4.125 -0.75 C 4.539062 -0.75 4.941406 -0.796875 5.328125 -0.890625 C 5.722656 -0.992188 6.113281 -1.148438 6.5 -1.359375 L 6.5 -0.328125 C 6.101562 -0.171875 5.703125 -0.0507812 5.296875 0.03125 C 4.890625 0.125 4.476562 0.171875 4.0625 0.171875 C 3.019531 0.171875 2.191406 -0.128906 1.578125 -0.734375 C 0.960938 -1.347656 0.65625 -2.175781 0.65625 -3.21875 C 0.65625 -4.289062 0.945312 -5.140625 1.53125 -5.765625 C 2.113281 -6.398438 2.894531 -6.71875 3.875 -6.71875 C 4.757812 -6.71875 5.457031 -6.429688 5.96875 -5.859375 C 6.488281 -5.296875 6.75 -4.523438 6.75 -3.546875 Z M 5.671875 -3.875 C 5.660156 -4.457031 5.492188 -4.925781 5.171875 -5.28125 C 4.847656 -5.632812 4.421875 -5.8125 3.890625 -5.8125 C 3.285156 -5.8125 2.800781 -5.640625 2.4375 -5.296875 C 2.082031 -4.953125 1.878906 -4.472656 1.828125 -3.859375 Z M 5.671875 -3.875 "/>
</g>
<g id="glyph-2-25">
<path d="M 1.296875 -8.75 L 5.9375 -8.75 L 5.9375 -7.75 L 2.375 -7.75 L 2.375 -5.609375 C 2.550781 -5.671875 2.722656 -5.710938 2.890625 -5.734375 C 3.066406 -5.765625 3.238281 -5.78125 3.40625 -5.78125 C 4.382812 -5.78125 5.160156 -5.507812 5.734375 -4.96875 C 6.304688 -4.4375 6.59375 -3.71875 6.59375 -2.8125 C 6.59375 -1.863281 6.296875 -1.128906 5.703125 -0.609375 C 5.117188 -0.0859375 4.296875 0.171875 3.234375 0.171875 C 2.859375 0.171875 2.476562 0.140625 2.09375 0.078125 C 1.71875 0.015625 1.328125 -0.078125 0.921875 -0.203125 L 0.921875 -1.390625 C 1.273438 -1.203125 1.640625 -1.0625 2.015625 -0.96875 C 2.390625 -0.875 2.785156 -0.828125 3.203125 -0.828125 C 3.878906 -0.828125 4.414062 -1.003906 4.8125 -1.359375 C 5.207031 -1.710938 5.40625 -2.195312 5.40625 -2.8125 C 5.40625 -3.414062 5.207031 -3.894531 4.8125 -4.25 C 4.414062 -4.601562 3.878906 -4.78125 3.203125 -4.78125 C 2.890625 -4.78125 2.570312 -4.742188 2.25 -4.671875 C 1.9375 -4.609375 1.617188 -4.503906 1.296875 -4.359375 Z M 1.296875 -8.75 "/>
</g>
<g id="glyph-3-0">
<path d="M 8.578125 -1.5 L 8.578125 -4.3125 L 6.25 -4.3125 L 6.25 -5.484375 L 9.984375 -5.484375 L 9.984375 -0.984375 C 9.429688 -0.585938 8.820312 -0.289062 8.15625 -0.09375 C 7.5 0.101562 6.796875 0.203125 6.046875 0.203125 C 4.410156 0.203125 3.128906 -0.273438 2.203125 -1.234375 C 1.273438 -2.191406 0.8125 -3.523438 0.8125 -5.234375 C 0.8125 -6.953125 1.273438 -8.289062 2.203125 -9.25 C 3.128906 -10.207031 4.410156 -10.6875 6.046875 -10.6875 C 6.734375 -10.6875 7.382812 -10.601562 8 -10.4375 C 8.613281 -10.269531 9.179688 -10.019531 9.703125 -9.6875 L 9.703125 -8.1875 C 9.179688 -8.625 8.625 -8.957031 8.03125 -9.1875 C 7.4375 -9.414062 6.816406 -9.53125 6.171875 -9.53125 C 4.878906 -9.53125 3.910156 -9.171875 3.265625 -8.453125 C 2.628906 -7.734375 2.3125 -6.660156 2.3125 -5.234375 C 2.3125 -3.816406 2.628906 -2.75 3.265625 -2.03125 C 3.910156 -1.320312 4.878906 -0.96875 6.171875 -0.96875 C 6.671875 -0.96875 7.117188 -1.007812 7.515625 -1.09375 C 7.910156 -1.175781 8.265625 -1.3125 8.578125 -1.5 Z M 8.578125 -1.5 "/>
</g>
<g id="glyph-3-1">
<path d="M 1.359375 -10.953125 L 2.65625 -10.953125 L 2.65625 0 L 1.359375 0 Z M 1.359375 -10.953125 "/>
</g>
<g id="glyph-3-2">
<path d="M 4.40625 -6.96875 C 3.71875 -6.96875 3.171875 -6.695312 2.765625 -6.15625 C 2.359375 -5.613281 2.15625 -4.875 2.15625 -3.9375 C 2.15625 -2.988281 2.351562 -2.242188 2.75 -1.703125 C 3.15625 -1.160156 3.707031 -0.890625 4.40625 -0.890625 C 5.09375 -0.890625 5.640625 -1.160156 6.046875 -1.703125 C 6.453125 -2.253906 6.65625 -3 6.65625 -3.9375 C 6.65625 -4.863281 6.453125 -5.597656 6.046875 -6.140625 C 5.640625 -6.691406 5.09375 -6.96875 4.40625 -6.96875 Z M 4.40625 -8.0625 C 5.53125 -8.0625 6.414062 -7.695312 7.0625 -6.96875 C 7.707031 -6.238281 8.03125 -5.226562 8.03125 -3.9375 C 8.03125 -2.644531 7.707031 -1.628906 7.0625 -0.890625 C 6.414062 -0.160156 5.53125 0.203125 4.40625 0.203125 C 3.28125 0.203125 2.394531 -0.160156 1.75 -0.890625 C 1.113281 -1.628906 0.796875 -2.644531 0.796875 -3.9375 C 0.796875 -5.226562 1.113281 -6.238281 1.75 -6.96875 C 2.394531 -7.695312 3.28125 -8.0625 4.40625 -8.0625 Z M 4.40625 -8.0625 "/>
</g>
<g id="glyph-3-3">
<path d="M 7.015625 -3.9375 C 7.015625 -4.882812 6.816406 -5.628906 6.421875 -6.171875 C 6.035156 -6.710938 5.5 -6.984375 4.8125 -6.984375 C 4.125 -6.984375 3.582031 -6.710938 3.1875 -6.171875 C 2.800781 -5.628906 2.609375 -4.882812 2.609375 -3.9375 C 2.609375 -2.976562 2.800781 -2.226562 3.1875 -1.6875 C 3.582031 -1.144531 4.125 -0.875 4.8125 -0.875 C 5.5 -0.875 6.035156 -1.144531 6.421875 -1.6875 C 6.816406 -2.226562 7.015625 -2.976562 7.015625 -3.9375 Z M 2.609375 -6.6875 C 2.878906 -7.15625 3.222656 -7.5 3.640625 -7.71875 C 4.054688 -7.945312 4.550781 -8.0625 5.125 -8.0625 C 6.082031 -8.0625 6.859375 -7.679688 7.453125 -6.921875 C 8.054688 -6.171875 8.359375 -5.175781 8.359375 -3.9375 C 8.359375 -2.695312 8.054688 -1.695312 7.453125 -0.9375 C 6.859375 -0.175781 6.082031 0.203125 5.125 0.203125 C 4.550781 0.203125 4.054688 0.0859375 3.640625 -0.140625 C 3.222656 -0.367188 2.878906 -0.71875 2.609375 -1.1875 L 2.609375 0 L 1.3125 0 L 1.3125 -10.953125 L 2.609375 -10.953125 Z M 2.609375 -6.6875 "/>
</g>
<g id="glyph-3-4">
<path d="M 4.9375 -3.953125 C 3.894531 -3.953125 3.171875 -3.832031 2.765625 -3.59375 C 2.359375 -3.363281 2.15625 -2.957031 2.15625 -2.375 C 2.15625 -1.914062 2.304688 -1.550781 2.609375 -1.28125 C 2.910156 -1.007812 3.320312 -0.875 3.84375 -0.875 C 4.5625 -0.875 5.132812 -1.128906 5.5625 -1.640625 C 6 -2.148438 6.21875 -2.828125 6.21875 -3.671875 L 6.21875 -3.953125 Z M 7.515625 -4.5 L 7.515625 0 L 6.21875 0 L 6.21875 -1.203125 C 5.925781 -0.722656 5.554688 -0.367188 5.109375 -0.140625 C 4.671875 0.0859375 4.132812 0.203125 3.5 0.203125 C 2.695312 0.203125 2.054688 -0.0195312 1.578125 -0.46875 C 1.097656 -0.925781 0.859375 -1.535156 0.859375 -2.296875 C 0.859375 -3.179688 1.15625 -3.847656 1.75 -4.296875 C 2.34375 -4.742188 3.226562 -4.96875 4.40625 -4.96875 L 6.21875 -4.96875 L 6.21875 -5.09375 C 6.21875 -5.695312 6.019531 -6.160156 5.625 -6.484375 C 5.238281 -6.804688 4.691406 -6.96875 3.984375 -6.96875 C 3.535156 -6.96875 3.097656 -6.910156 2.671875 -6.796875 C 2.242188 -6.691406 1.832031 -6.535156 1.4375 -6.328125 L 1.4375 -7.515625 C 1.914062 -7.703125 2.375 -7.835938 2.8125 -7.921875 C 3.257812 -8.015625 3.695312 -8.0625 4.125 -8.0625 C 5.257812 -8.0625 6.109375 -7.765625 6.671875 -7.171875 C 7.234375 -6.585938 7.515625 -5.695312 7.515625 -4.5 Z M 7.515625 -4.5 "/>
</g>
<g id="glyph-3-5">
</g>
<g id="glyph-3-6">
<path d="M 7.03125 -7.578125 L 7.03125 -6.359375 C 6.664062 -6.566406 6.296875 -6.71875 5.921875 -6.8125 C 5.554688 -6.914062 5.1875 -6.96875 4.8125 -6.96875 C 3.96875 -6.96875 3.3125 -6.703125 2.84375 -6.171875 C 2.382812 -5.640625 2.15625 -4.894531 2.15625 -3.9375 C 2.15625 -2.96875 2.382812 -2.21875 2.84375 -1.6875 C 3.3125 -1.15625 3.96875 -0.890625 4.8125 -0.890625 C 5.1875 -0.890625 5.554688 -0.941406 5.921875 -1.046875 C 6.296875 -1.148438 6.664062 -1.300781 7.03125 -1.5 L 7.03125 -0.296875 C 6.664062 -0.128906 6.289062 -0.00390625 5.90625 0.078125 C 5.519531 0.160156 5.109375 0.203125 4.671875 0.203125 C 3.484375 0.203125 2.539062 -0.164062 1.84375 -0.90625 C 1.144531 -1.65625 0.796875 -2.664062 0.796875 -3.9375 C 0.796875 -5.21875 1.144531 -6.222656 1.84375 -6.953125 C 2.550781 -7.691406 3.519531 -8.0625 4.75 -8.0625 C 5.15625 -8.0625 5.546875 -8.019531 5.921875 -7.9375 C 6.304688 -7.863281 6.675781 -7.742188 7.03125 -7.578125 Z M 7.03125 -7.578125 "/>
</g>
<g id="glyph-3-7">
<path d="M 5.921875 -6.671875 C 5.773438 -6.753906 5.613281 -6.816406 5.4375 -6.859375 C 5.269531 -6.898438 5.082031 -6.921875 4.875 -6.921875 C 4.144531 -6.921875 3.582031 -6.679688 3.1875 -6.203125 C 2.800781 -5.722656 2.609375 -5.039062 2.609375 -4.15625 L 2.609375 0 L 1.3125 0 L 1.3125 -7.875 L 2.609375 -7.875 L 2.609375 -6.65625 C 2.878906 -7.132812 3.234375 -7.488281 3.671875 -7.71875 C 4.109375 -7.945312 4.640625 -8.0625 5.265625 -8.0625 C 5.347656 -8.0625 5.441406 -8.054688 5.546875 -8.046875 C 5.660156 -8.035156 5.785156 -8.019531 5.921875 -8 Z M 5.921875 -6.671875 "/>
</g>
<g id="glyph-3-8">
<path d="M 6.546875 -6.6875 L 6.546875 -10.953125 L 7.84375 -10.953125 L 7.84375 0 L 6.546875 0 L 6.546875 -1.1875 C 6.273438 -0.71875 5.929688 -0.367188 5.515625 -0.140625 C 5.097656 0.0859375 4.597656 0.203125 4.015625 0.203125 C 3.066406 0.203125 2.289062 -0.175781 1.6875 -0.9375 C 1.09375 -1.695312 0.796875 -2.695312 0.796875 -3.9375 C 0.796875 -5.175781 1.09375 -6.171875 1.6875 -6.921875 C 2.289062 -7.679688 3.066406 -8.0625 4.015625 -8.0625 C 4.597656 -8.0625 5.097656 -7.945312 5.515625 -7.71875 C 5.929688 -7.5 6.273438 -7.15625 6.546875 -6.6875 Z M 2.125 -3.9375 C 2.125 -2.976562 2.320312 -2.226562 2.71875 -1.6875 C 3.113281 -1.144531 3.648438 -0.875 4.328125 -0.875 C 5.015625 -0.875 5.554688 -1.144531 5.953125 -1.6875 C 6.347656 -2.226562 6.546875 -2.976562 6.546875 -3.9375 C 6.546875 -4.882812 6.347656 -5.628906 5.953125 -6.171875 C 5.554688 -6.710938 5.015625 -6.984375 4.328125 -6.984375 C 3.648438 -6.984375 3.113281 -6.710938 2.71875 -6.171875 C 2.320312 -5.628906 2.125 -4.882812 2.125 -3.9375 Z M 2.125 -3.9375 "/>
</g>
<g id="glyph-3-9">
<path d="M 1.359375 -7.875 L 2.65625 -7.875 L 2.65625 0 L 1.359375 0 Z M 1.359375 -10.953125 L 2.65625 -10.953125 L 2.65625 -9.3125 L 1.359375 -9.3125 Z M 1.359375 -10.953125 "/>
</g>
<g id="glyph-3-10">
<path d="M 0.421875 -7.875 L 1.796875 -7.875 L 4.265625 -1.265625 L 6.71875 -7.875 L 8.09375 -7.875 L 5.140625 0 L 3.390625 0 Z M 0.421875 -7.875 "/>
</g>
<g id="glyph-3-11">
<path d="M 6.375 -7.640625 L 6.375 -6.421875 C 6.007812 -6.609375 5.628906 -6.75 5.234375 -6.84375 C 4.847656 -6.9375 4.441406 -6.984375 4.015625 -6.984375 C 3.367188 -6.984375 2.882812 -6.882812 2.5625 -6.6875 C 2.25 -6.488281 2.09375 -6.191406 2.09375 -5.796875 C 2.09375 -5.503906 2.207031 -5.269531 2.4375 -5.09375 C 2.664062 -4.925781 3.125 -4.765625 3.8125 -4.609375 L 4.265625 -4.515625 C 5.179688 -4.316406 5.832031 -4.035156 6.21875 -3.671875 C 6.601562 -3.316406 6.796875 -2.816406 6.796875 -2.171875 C 6.796875 -1.441406 6.503906 -0.863281 5.921875 -0.4375 C 5.347656 -0.0078125 4.554688 0.203125 3.546875 0.203125 C 3.117188 0.203125 2.675781 0.160156 2.21875 0.078125 C 1.769531 -0.00390625 1.289062 -0.125 0.78125 -0.28125 L 0.78125 -1.625 C 1.257812 -1.375 1.726562 -1.1875 2.1875 -1.0625 C 2.65625 -0.9375 3.117188 -0.875 3.578125 -0.875 C 4.179688 -0.875 4.644531 -0.976562 4.96875 -1.1875 C 5.300781 -1.394531 5.46875 -1.691406 5.46875 -2.078125 C 5.46875 -2.429688 5.347656 -2.703125 5.109375 -2.890625 C 4.878906 -3.078125 4.363281 -3.253906 3.5625 -3.421875 L 3.109375 -3.53125 C 2.304688 -3.695312 1.726562 -3.953125 1.375 -4.296875 C 1.019531 -4.648438 0.84375 -5.132812 0.84375 -5.75 C 0.84375 -6.488281 1.101562 -7.054688 1.625 -7.453125 C 2.144531 -7.859375 2.890625 -8.0625 3.859375 -8.0625 C 4.335938 -8.0625 4.785156 -8.023438 5.203125 -7.953125 C 5.628906 -7.890625 6.019531 -7.785156 6.375 -7.640625 Z M 6.375 -7.640625 "/>
</g>
<g id="glyph-3-12">
<path d="M 1.21875 -3.109375 L 1.21875 -7.875 L 2.515625 -7.875 L 2.515625 -3.15625 C 2.515625 -2.414062 2.660156 -1.859375 2.953125 -1.484375 C 3.242188 -1.109375 3.679688 -0.921875 4.265625 -0.921875 C 4.960938 -0.921875 5.515625 -1.144531 5.921875 -1.59375 C 6.328125 -2.039062 6.53125 -2.644531 6.53125 -3.40625 L 6.53125 -7.875 L 7.828125 -7.875 L 7.828125 0 L 6.53125 0 L 6.53125 -1.203125 C 6.21875 -0.734375 5.851562 -0.378906 5.4375 -0.140625 C 5.019531 0.0859375 4.535156 0.203125 3.984375 0.203125 C 3.078125 0.203125 2.390625 -0.078125 1.921875 -0.640625 C 1.453125 -1.203125 1.21875 -2.023438 1.21875 -3.109375 Z M 4.484375 -8.0625 Z M 4.484375 -8.0625 "/>
</g>
<g id="glyph-3-13">
<path d="M 8.09375 -4.265625 L 8.09375 -3.625 L 2.140625 -3.625 C 2.203125 -2.738281 2.472656 -2.0625 2.953125 -1.59375 C 3.429688 -1.125 4.097656 -0.890625 4.953125 -0.890625 C 5.453125 -0.890625 5.9375 -0.953125 6.40625 -1.078125 C 6.875 -1.203125 7.335938 -1.382812 7.796875 -1.625 L 7.796875 -0.40625 C 7.328125 -0.207031 6.847656 -0.0546875 6.359375 0.046875 C 5.878906 0.148438 5.382812 0.203125 4.875 0.203125 C 3.625 0.203125 2.628906 -0.160156 1.890625 -0.890625 C 1.160156 -1.617188 0.796875 -2.609375 0.796875 -3.859375 C 0.796875 -5.148438 1.144531 -6.171875 1.84375 -6.921875 C 2.539062 -7.679688 3.476562 -8.0625 4.65625 -8.0625 C 5.71875 -8.0625 6.554688 -7.71875 7.171875 -7.03125 C 7.785156 -6.351562 8.09375 -5.429688 8.09375 -4.265625 Z M 6.796875 -4.640625 C 6.785156 -5.347656 6.585938 -5.910156 6.203125 -6.328125 C 5.816406 -6.753906 5.304688 -6.96875 4.671875 -6.96875 C 3.953125 -6.96875 3.375 -6.765625 2.9375 -6.359375 C 2.5 -5.953125 2.25 -5.378906 2.1875 -4.640625 Z M 6.796875 -4.640625 "/>
</g>
<g id="glyph-3-14">
<path d="M 2.640625 -10.109375 L 2.640625 -7.875 L 5.296875 -7.875 L 5.296875 -6.875 L 2.640625 -6.875 L 2.640625 -2.59375 C 2.640625 -1.945312 2.726562 -1.53125 2.90625 -1.34375 C 3.082031 -1.164062 3.4375 -1.078125 3.96875 -1.078125 L 5.296875 -1.078125 L 5.296875 0 L 3.96875 0 C 2.96875 0 2.28125 -0.1875 1.90625 -0.5625 C 1.53125 -0.9375 1.34375 -1.613281 1.34375 -2.59375 L 1.34375 -6.875 L 0.390625 -6.875 L 0.390625 -7.875 L 1.34375 -7.875 L 1.34375 -10.109375 Z M 2.640625 -10.109375 "/>
</g>
<g id="glyph-3-15">
<path d="M 7.90625 -4.75 L 7.90625 0 L 6.609375 0 L 6.609375 -4.71875 C 6.609375 -5.457031 6.460938 -6.007812 6.171875 -6.375 C 5.878906 -6.75 5.445312 -6.9375 4.875 -6.9375 C 4.164062 -6.9375 3.609375 -6.710938 3.203125 -6.265625 C 2.804688 -5.828125 2.609375 -5.222656 2.609375 -4.453125 L 2.609375 0 L 1.3125 0 L 1.3125 -10.953125 L 2.609375 -10.953125 L 2.609375 -6.65625 C 2.921875 -7.125 3.285156 -7.472656 3.703125 -7.703125 C 4.117188 -7.941406 4.601562 -8.0625 5.15625 -8.0625 C 6.0625 -8.0625 6.742188 -7.78125 7.203125 -7.21875 C 7.671875 -6.664062 7.90625 -5.84375 7.90625 -4.75 Z M 7.90625 -4.75 "/>
</g>
</g>
<clipPath id="clip-0">
<path clip-rule="nonzero" d="M 38.347656 43.933594 L 714.023438 43.933594 L 714.023438 347.195312 L 38.347656 347.195312 Z M 38.347656 43.933594 "/>
</clipPath>
<clipPath id="clip-1">
<path clip-rule="nonzero" d="M 38.347656 274 L 714.023438 274 L 714.023438 276 L 38.347656 276 Z M 38.347656 274 "/>
</clipPath>
<clipPath id="clip-2">
<path clip-rule="nonzero" d="M 38.347656 193 L 714.023438 193 L 714.023438 195 L 38.347656 195 Z M 38.347656 193 "/>
</clipPath>
<clipPath id="clip-3">
<path clip-rule="nonzero" d="M 38.347656 112 L 714.023438 112 L 714.023438 114 L 38.347656 114 Z M 38.347656 112 "/>
</clipPath>
<clipPath id="clip-4">
<path clip-rule="nonzero" d="M 68 43.933594 L 70 43.933594 L 70 347.195312 L 68 347.195312 Z M 68 43.933594 "/>
</clipPath>
<clipPath id="clip-5">
<path clip-rule="nonzero" d="M 180 43.933594 L 182 43.933594 L 182 347.195312 L 180 347.195312 Z M 180 43.933594 "/>
</clipPath>
<clipPath id="clip-6">
<path clip-rule="nonzero" d="M 263 43.933594 L 266 43.933594 L 266 347.195312 L 263 347.195312 Z M 263 43.933594 "/>
</clipPath>
<clipPath id="clip-7">
<path clip-rule="nonzero" d="M 403 43.933594 L 405 43.933594 L 405 347.195312 L 403 347.195312 Z M 403 43.933594 "/>
</clipPath>
<clipPath id="clip-8">
<path clip-rule="nonzero" d="M 543 43.933594 L 545 43.933594 L 545 347.195312 L 543 347.195312 Z M 543 43.933594 "/>
</clipPath>
<clipPath id="clip-9">
<path clip-rule="nonzero" d="M 682 43.933594 L 684 43.933594 L 684 347.195312 L 682 347.195312 Z M 682 43.933594 "/>
</clipPath>
<clipPath id="clip-10">
<path clip-rule="nonzero" d="M 38.347656 43.933594 L 714.023438 43.933594 L 714.023438 347.195312 L 38.347656 347.195312 Z M 38.347656 43.933594 "/>
</clipPath>
</defs>
<rect x="-72" y="-43.2" width="864" height="518.4" fill="rgb(100%, 100%, 100%)" fill-opacity="1"/>
<rect x="-72" y="-43.2" width="864" height="518.4" fill="rgb(100%, 100%, 100%)" fill-opacity="1"/>
<path fill="none" stroke-width="1.163976" stroke-linecap="round" stroke-linejoin="round" stroke="rgb(100%, 100%, 100%)" stroke-opacity="1" stroke-miterlimit="10" d="M 0 432 L 720 432 L 720 0 L 0 0 Z M 0 432 "/>
<g clip-path="url(#clip-0)">
<path fill-rule="nonzero" fill="rgb(100%, 100%, 100%)" fill-opacity="1" d="M 38.347656 347.195312 L 714.023438 347.195312 L 714.023438 43.933594 L 38.347656 43.933594 Z M 38.347656 347.195312 "/>
</g>
<g clip-path="url(#clip-1)">
<path fill="none" stroke-width="1.163976" stroke-linecap="butt" stroke-linejoin="round" stroke="rgb(92.156863%, 92.156863%, 92.156863%)" stroke-opacity="1" stroke-miterlimit="10" d="M 38.347656 274.734375 L 714.023438 274.734375 "/>
</g>
<g clip-path="url(#clip-2)">
<path fill="none" stroke-width="1.163976" stroke-linecap="butt" stroke-linejoin="round" stroke="rgb(92.156863%, 92.156863%, 92.156863%)" stroke-opacity="1" stroke-miterlimit="10" d="M 38.347656 193.742188 L 714.023438 193.742188 "/>
</g>
<g clip-path="url(#clip-3)">
<path fill="none" stroke-width="1.163976" stroke-linecap="butt" stroke-linejoin="round" stroke="rgb(92.156863%, 92.156863%, 92.156863%)" stroke-opacity="1" stroke-miterlimit="10" d="M 38.347656 112.753906 L 714.023438 112.753906 "/>
</g>
<g clip-path="url(#clip-4)">
<path fill="none" stroke-width="1.163976" stroke-linecap="butt" stroke-linejoin="round" stroke="rgb(92.156863%, 92.156863%, 92.156863%)" stroke-opacity="1" stroke-miterlimit="10" d="M 69.058594 347.195312 L 69.058594 43.933594 "/>
</g>
<g clip-path="url(#clip-5)">
<path fill="none" stroke-width="1.163976" stroke-linecap="butt" stroke-linejoin="round" stroke="rgb(92.156863%, 92.156863%, 92.156863%)" stroke-opacity="1" stroke-miterlimit="10" d="M 180.742188 347.195312 L 180.742188 43.933594 "/>
</g>
<g clip-path="url(#clip-6)">
<path fill="none" stroke-width="1.163976" stroke-linecap="butt" stroke-linejoin="round" stroke="rgb(92.156863%, 92.156863%, 92.156863%)" stroke-opacity="1" stroke-miterlimit="10" d="M 264.503906 347.195312 L 264.503906 43.933594 "/>
</g>
<g clip-path="url(#clip-7)">
<path fill="none" stroke-width="1.163976" stroke-linecap="butt" stroke-linejoin="round" stroke="rgb(92.156863%, 92.156863%, 92.156863%)" stroke-opacity="1" stroke-miterlimit="10" d="M 404.105469 347.195312 L 404.105469 43.933594 "/>
</g>
<g clip-path="url(#clip-8)">
<path fill="none" stroke-width="1.163976" stroke-linecap="butt" stroke-linejoin="round" stroke="rgb(92.156863%, 92.156863%, 92.156863%)" stroke-opacity="1" stroke-miterlimit="10" d="M 543.707031 347.195312 L 543.707031 43.933594 "/>
</g>
<g clip-path="url(#clip-9)">
<path fill="none" stroke-width="1.163976" stroke-linecap="butt" stroke-linejoin="round" stroke="rgb(92.156863%, 92.156863%, 92.156863%)" stroke-opacity="1" stroke-miterlimit="10" d="M 683.308594 347.195312 L 683.308594 43.933594 "/>
</g>
<path fill="none" stroke-width="1.920561" stroke-linecap="butt" stroke-linejoin="round" stroke="rgb(34.901961%, 34.901961%, 34.901961%)" stroke-opacity="1" stroke-miterlimit="10" d="M 69.058594 305.195312 L 74.644531 302.128906 L 80.226562 299.761719 L 85.8125 293.738281 L 91.394531 291.621094 L 96.980469 290.742188 L 102.5625 289.742188 L 108.148438 288.550781 L 113.730469 286.410156 L 119.316406 283.0625 L 124.898438 282.113281 L 130.484375 280.8125 L 136.066406 278.035156 L 141.652344 276.105469 L 147.234375 278.820312 L 152.820312 276.808594 L 158.40625 275.078125 L 163.988281 271.804688 L 169.574219 268.710938 L 175.15625 267.59375 L 180.742188 263.890625 L 186.324219 260.726562 L 191.910156 255.480469 L 197.492188 251.085938 L 203.078125 247.757812 L 208.660156 239.285156 L 214.246094 231.824219 L 219.828125 226.382812 L 225.414062 226.652344 L 230.996094 232.265625 L 236.582031 232 L 242.164062 215.363281 L 247.75 211.1875 L 253.335938 208.015625 "/>
<path fill="none" stroke-width="1.920561" stroke-linecap="butt" stroke-linejoin="round" stroke="rgb(10.588235%, 61.960784%, 46.666667%)" stroke-opacity="1" stroke-miterlimit="10" d="M 253.335938 208.015625 L 264.503906 183.640625 L 292.421875 203.03125 L 320.34375 194.304688 L 348.265625 186.195312 L 376.183594 181.203125 L 404.105469 181.519531 L 432.023438 184.832031 L 459.945312 191.011719 L 487.867188 202.527344 L 515.785156 217.5 L 543.707031 233.386719 L 571.628906 245.042969 L 599.546875 261.738281 L 627.46875 284.460938 L 655.390625 305.292969 L 683.308594 318.375 "/>
<path fill="none" stroke-width="1.920561" stroke-linecap="butt" stroke-linejoin="round" stroke="rgb(85.098039%, 37.254902%, 0.784314%)" stroke-opacity="1" stroke-miterlimit="10" d="M 253.335938 208.015625 L 264.503906 174.695312 L 292.421875 184.238281 L 320.34375 165.789062 L 348.265625 147.914062 L 376.183594 133.527344 L 404.105469 125.074219 L 432.023438 121.847656 L 459.945312 124.371094 L 487.867188 132.867188 L 515.785156 144.1875 L 543.707031 155.789062 L 571.628906 168.296875 L 599.546875 187.652344 L 627.46875 210.246094 L 655.390625 229.460938 L 683.308594 243.890625 "/>
<path fill="none" stroke-width="1.920561" stroke-linecap="butt" stroke-linejoin="round" stroke="rgb(45.882353%, 43.921569%, 70.196078%)" stroke-opacity="1" stroke-miterlimit="10" d="M 253.335938 208.015625 L 264.503906 164.664062 L 292.421875 163.25 L 320.34375 134.660156 L 348.265625 108 L 376.183594 85.199219 L 404.105469 69.753906 L 432.023438 60.125 L 459.945312 57.71875 L 487.867188 60.613281 L 515.785156 64.890625 L 543.707031 69.816406 L 571.628906 79.222656 L 599.546875 93.886719 L 627.46875 107.5625 L 655.390625 116.980469 L 683.308594 124.425781 "/>
<path fill="none" stroke-width="1.920561" stroke-linecap="butt" stroke-linejoin="round" stroke="rgb(90.588235%, 16.078431%, 54.117647%)" stroke-opacity="1" stroke-miterlimit="10" d="M 253.335938 208.015625 L 264.503906 173.039062 L 292.421875 180.726562 L 320.34375 161.320312 L 348.265625 142.867188 L 376.183594 127.675781 L 404.105469 118.703125 L 432.023438 114.144531 L 459.945312 114.445312 L 487.867188 119.894531 L 515.785156 127.699219 L 543.707031 136.035156 L 571.628906 145.382812 L 599.546875 160.949219 L 627.46875 179.636719 L 655.390625 193.71875 L 683.308594 203.742188 "/>
<path fill="none" stroke-width="1.920561" stroke-linecap="butt" stroke-linejoin="round" stroke="rgb(40%, 65.098039%, 11.764706%)" stroke-opacity="1" stroke-miterlimit="10" d="M 253.335938 208.015625 L 264.503906 183.832031 L 292.421875 203.332031 L 320.34375 195.121094 L 348.265625 187.894531 L 376.183594 184.171875 L 404.105469 185.78125 L 432.023438 190.507812 L 459.945312 198.21875 L 487.867188 211.105469 L 515.785156 227.398438 L 543.707031 244.679688 L 571.628906 257.933594 L 599.546875 275.347656 L 627.46875 298.480469 L 655.390625 319.632812 L 683.308594 333.410156 "/>
<g clip-path="url(#clip-10)">
<path fill="none" stroke-width="1.163976" stroke-linecap="round" stroke-linejoin="round" stroke="rgb(20%, 20%, 20%)" stroke-opacity="1" stroke-miterlimit="10" d="M 38.347656 347.195312 L 714.023438 347.195312 L 714.023438 43.933594 L 38.347656 43.933594 Z M 38.347656 347.195312 "/>
</g>
<g fill="rgb(30.196078%, 30.196078%, 30.196078%)" fill-opacity="1">
<use xlink:href="#glyph-0-0" x="20.964844" y="278.144531"/>
<use xlink:href="#glyph-0-1" x="26.964844" y="278.144531"/>
</g>
<g fill="rgb(30.196078%, 30.196078%, 30.196078%)" fill-opacity="1">
<use xlink:href="#glyph-0-2" x="20.964844" y="197.152344"/>
<use xlink:href="#glyph-0-3" x="26.964844" y="197.152344"/>
</g>
<g fill="rgb(30.196078%, 30.196078%, 30.196078%)" fill-opacity="1">
<use xlink:href="#glyph-0-2" x="20.964844" y="116.164062"/>
<use xlink:href="#glyph-0-1" x="26.964844" y="116.164062"/>
</g>
<path fill="none" stroke-width="1.163976" stroke-linecap="butt" stroke-linejoin="round" stroke="rgb(20%, 20%, 20%)" stroke-opacity="1" stroke-miterlimit="10" d="M 35.355469 274.734375 L 38.347656 274.734375 "/>
<path fill="none" stroke-width="1.163976" stroke-linecap="butt" stroke-linejoin="round" stroke="rgb(20%, 20%, 20%)" stroke-opacity="1" stroke-miterlimit="10" d="M 35.355469 193.742188 L 38.347656 193.742188 "/>
<path fill="none" stroke-width="1.163976" stroke-linecap="butt" stroke-linejoin="round" stroke="rgb(20%, 20%, 20%)" stroke-opacity="1" stroke-miterlimit="10" d="M 35.355469 112.753906 L 38.347656 112.753906 "/>
<path fill="none" stroke-width="1.163976" stroke-linecap="butt" stroke-linejoin="round" stroke="rgb(20%, 20%, 20%)" stroke-opacity="1" stroke-miterlimit="10" d="M 69.058594 350.183594 L 69.058594 347.195312 "/>
<path fill="none" stroke-width="1.163976" stroke-linecap="butt" stroke-linejoin="round" stroke="rgb(20%, 20%, 20%)" stroke-opacity="1" stroke-miterlimit="10" d="M 180.742188 350.183594 L 180.742188 347.195312 "/>
<path fill="none" stroke-width="1.163976" stroke-linecap="butt" stroke-linejoin="round" stroke="rgb(20%, 20%, 20%)" stroke-opacity="1" stroke-miterlimit="10" d="M 264.503906 350.183594 L 264.503906 347.195312 "/>
<path fill="none" stroke-width="1.163976" stroke-linecap="butt" stroke-linejoin="round" stroke="rgb(20%, 20%, 20%)" stroke-opacity="1" stroke-miterlimit="10" d="M 404.105469 350.183594 L 404.105469 347.195312 "/>
<path fill="none" stroke-width="1.163976" stroke-linecap="butt" stroke-linejoin="round" stroke="rgb(20%, 20%, 20%)" stroke-opacity="1" stroke-miterlimit="10" d="M 543.707031 350.183594 L 543.707031 347.195312 "/>
<path fill="none" stroke-width="1.163976" stroke-linecap="butt" stroke-linejoin="round" stroke="rgb(20%, 20%, 20%)" stroke-opacity="1" stroke-miterlimit="10" d="M 683.308594 350.183594 L 683.308594 347.195312 "/>
<g fill="rgb(30.196078%, 30.196078%, 30.196078%)" fill-opacity="1">
<use xlink:href="#glyph-0-0" x="57.058594" y="359.484375"/>
<use xlink:href="#glyph-0-4" x="63.058594" y="359.484375"/>
<use xlink:href="#glyph-0-4" x="69.058594" y="359.484375"/>
<use xlink:href="#glyph-0-3" x="75.058594" y="359.484375"/>
</g>
<g fill="rgb(30.196078%, 30.196078%, 30.196078%)" fill-opacity="1">
<use xlink:href="#glyph-0-2" x="168.742188" y="359.484375"/>
<use xlink:href="#glyph-0-3" x="174.742188" y="359.484375"/>
<use xlink:href="#glyph-0-0" x="180.742188" y="359.484375"/>
<use xlink:href="#glyph-0-3" x="186.742188" y="359.484375"/>
</g>
<g fill="rgb(30.196078%, 30.196078%, 30.196078%)" fill-opacity="1">
<use xlink:href="#glyph-0-2" x="252.503906" y="359.484375"/>
<use xlink:href="#glyph-0-3" x="258.503906" y="359.484375"/>
<use xlink:href="#glyph-0-2" x="264.503906" y="359.484375"/>
<use xlink:href="#glyph-0-1" x="270.503906" y="359.484375"/>
</g>
<g fill="rgb(30.196078%, 30.196078%, 30.196078%)" fill-opacity="1">
<use xlink:href="#glyph-0-2" x="392.105469" y="359.484375"/>
<use xlink:href="#glyph-0-3" x="398.105469" y="359.484375"/>
<use xlink:href="#glyph-0-1" x="404.105469" y="359.484375"/>
<use xlink:href="#glyph-0-3" x="410.105469" y="359.484375"/>
</g>
<g fill="rgb(30.196078%, 30.196078%, 30.196078%)" fill-opacity="1">
<use xlink:href="#glyph-0-2" x="531.707031" y="359.484375"/>
<use xlink:href="#glyph-0-3" x="537.707031" y="359.484375"/>
<use xlink:href="#glyph-0-5" x="543.707031" y="359.484375"/>
<use xlink:href="#glyph-0-1" x="549.707031" y="359.484375"/>
</g>
<g fill="rgb(30.196078%, 30.196078%, 30.196078%)" fill-opacity="1">
<use xlink:href="#glyph-0-2" x="671.308594" y="359.484375"/>
<use xlink:href="#glyph-0-0" x="677.308594" y="359.484375"/>
<use xlink:href="#glyph-0-3" x="683.308594" y="359.484375"/>
<use xlink:href="#glyph-0-3" x="689.308594" y="359.484375"/>
</g>
<g fill="rgb(0%, 0%, 0%)" fill-opacity="1">
<use xlink:href="#glyph-1-0" x="14.115234" y="260.0625"/>
<use xlink:href="#glyph-1-1" x="14.115234" y="252.0625"/>
<use xlink:href="#glyph-1-2" x="14.115234" y="244.0625"/>
<use xlink:href="#glyph-1-3" x="14.115234" y="235.0625"/>
<use xlink:href="#glyph-1-4" x="14.115234" y="231.0625"/>
<use xlink:href="#glyph-1-5" x="14.115234" y="223.0625"/>
<use xlink:href="#glyph-1-6" x="14.115234" y="216.0625"/>
<use xlink:href="#glyph-1-7" x="14.115234" y="209.0625"/>
<use xlink:href="#glyph-1-8" x="14.115234" y="204.0625"/>
<use xlink:href="#glyph-1-9" x="14.115234" y="196.0625"/>
<use xlink:href="#glyph-1-3" x="14.115234" y="190.0625"/>
<use xlink:href="#glyph-1-10" x="14.115234" y="186.0625"/>
<use xlink:href="#glyph-1-11" x="14.115234" y="181.0625"/>
<use xlink:href="#glyph-1-12" x="14.115234" y="169.0625"/>
<use xlink:href="#glyph-1-13" x="14.115234" y="166.0625"/>
<use xlink:href="#glyph-1-13" x="14.115234" y="163.0625"/>
<use xlink:href="#glyph-1-12" x="14.115234" y="160.0625"/>
<use xlink:href="#glyph-1-14" x="14.115234" y="157.0625"/>
<use xlink:href="#glyph-1-15" x="14.115234" y="150.0625"/>
<use xlink:href="#glyph-1-9" x="14.115234" y="142.0625"/>
<use xlink:href="#glyph-1-16" x="14.115234" y="136.0625"/>
</g>
<path fill-rule="nonzero" fill="rgb(100%, 100%, 100%)" fill-opacity="1" d="M 282.34375 426.023438 L 470.027344 426.023438 L 470.027344 373.53125 L 282.34375 373.53125 Z M 282.34375 426.023438 "/>
<path fill-rule="nonzero" fill="rgb(100%, 100%, 100%)" fill-opacity="1" d="M 288.320312 396.789062 L 305.601562 396.789062 L 305.601562 379.507812 L 288.320312 379.507812 Z M 288.320312 396.789062 "/>
<path fill="none" stroke-width="1.920561" stroke-linecap="butt" stroke-linejoin="round" stroke="rgb(34.901961%, 34.901961%, 34.901961%)" stroke-opacity="1" stroke-miterlimit="10" d="M 290.046875 388.148438 L 303.871094 388.148438 "/>
<path fill-rule="nonzero" fill="rgb(100%, 100%, 100%)" fill-opacity="1" d="M 288.320312 420.042969 L 305.601562 420.042969 L 305.601562 402.761719 L 288.320312 402.761719 Z M 288.320312 420.042969 "/>
<path fill="none" stroke-width="1.920561" stroke-linecap="butt" stroke-linejoin="round" stroke="rgb(10.588235%, 61.960784%, 46.666667%)" stroke-opacity="1" stroke-miterlimit="10" d="M 290.046875 411.40625 L 303.871094 411.40625 "/>
<path fill-rule="nonzero" fill="rgb(100%, 100%, 100%)" fill-opacity="1" d="M 363.554688 396.789062 L 380.835938 396.789062 L 380.835938 379.507812 L 363.554688 379.507812 Z M 363.554688 396.789062 "/>
<path fill="none" stroke-width="1.920561" stroke-linecap="butt" stroke-linejoin="round" stroke="rgb(85.098039%, 37.254902%, 0.784314%)" stroke-opacity="1" stroke-miterlimit="10" d="M 365.285156 388.148438 L 379.109375 388.148438 "/>
<path fill-rule="nonzero" fill="rgb(100%, 100%, 100%)" fill-opacity="1" d="M 363.554688 420.042969 L 380.835938 420.042969 L 380.835938 402.761719 L 363.554688 402.761719 Z M 363.554688 420.042969 "/>
<path fill="none" stroke-width="1.920561" stroke-linecap="butt" stroke-linejoin="round" stroke="rgb(45.882353%, 43.921569%, 70.196078%)" stroke-opacity="1" stroke-miterlimit="10" d="M 365.285156 411.40625 L 379.109375 411.40625 "/>
<path fill-rule="nonzero" fill="rgb(100%, 100%, 100%)" fill-opacity="1" d="M 416.789062 396.789062 L 434.070312 396.789062 L 434.070312 379.507812 L 416.789062 379.507812 Z M 416.789062 396.789062 "/>
<path fill="none" stroke-width="1.920561" stroke-linecap="butt" stroke-linejoin="round" stroke="rgb(90.588235%, 16.078431%, 54.117647%)" stroke-opacity="1" stroke-miterlimit="10" d="M 418.519531 388.148438 L 432.34375 388.148438 "/>
<path fill-rule="nonzero" fill="rgb(100%, 100%, 100%)" fill-opacity="1" d="M 416.789062 420.042969 L 434.070312 420.042969 L 434.070312 402.761719 L 416.789062 402.761719 Z M 416.789062 420.042969 "/>
<path fill="none" stroke-width="1.920561" stroke-linecap="butt" stroke-linejoin="round" stroke="rgb(40%, 65.098039%, 11.764706%)" stroke-opacity="1" stroke-miterlimit="10" d="M 418.519531 411.40625 L 432.34375 411.40625 "/>
<g fill="rgb(0%, 0%, 0%)" fill-opacity="1">
<use xlink:href="#glyph-0-6" x="311.578125" y="391.558594"/>
<use xlink:href="#glyph-0-7" x="318.578125" y="391.558594"/>
<use xlink:href="#glyph-0-8" x="321.578125" y="391.558594"/>
<use xlink:href="#glyph-0-9" x="326.578125" y="391.558594"/>
<use xlink:href="#glyph-0-10" x="330.578125" y="391.558594"/>
<use xlink:href="#glyph-0-11" x="336.578125" y="391.558594"/>
<use xlink:href="#glyph-0-7" x="340.578125" y="391.558594"/>
<use xlink:href="#glyph-0-12" x="343.578125" y="391.558594"/>
<use xlink:href="#glyph-0-13" x="348.578125" y="391.558594"/>
<use xlink:href="#glyph-0-14" x="354.578125" y="391.558594"/>
</g>
<g fill="rgb(0%, 0%, 0%)" fill-opacity="1">
<use xlink:href="#glyph-0-15" x="311.578125" y="414.816406"/>
<use xlink:href="#glyph-0-15" x="317.578125" y="414.816406"/>
<use xlink:href="#glyph-0-16" x="323.578125" y="414.816406"/>
<use xlink:href="#glyph-0-0" x="329.578125" y="414.816406"/>
</g>
<g fill="rgb(0%, 0%, 0%)" fill-opacity="1">
<use xlink:href="#glyph-0-15" x="386.8125" y="391.558594"/>
<use xlink:href="#glyph-0-15" x="392.8125" y="391.558594"/>
<use xlink:href="#glyph-0-16" x="398.8125" y="391.558594"/>
<use xlink:href="#glyph-0-2" x="404.8125" y="391.558594"/>
</g>
<g fill="rgb(0%, 0%, 0%)" fill-opacity="1">
<use xlink:href="#glyph-0-15" x="386.8125" y="414.816406"/>
<use xlink:href="#glyph-0-15" x="392.8125" y="414.816406"/>
<use xlink:href="#glyph-0-16" x="398.8125" y="414.816406"/>
<use xlink:href="#glyph-0-17" x="404.8125" y="414.816406"/>
</g>
<g fill="rgb(0%, 0%, 0%)" fill-opacity="1">
<use xlink:href="#glyph-0-15" x="440.046875" y="391.558594"/>
<use xlink:href="#glyph-0-15" x="446.046875" y="391.558594"/>
<use xlink:href="#glyph-0-16" x="452.046875" y="391.558594"/>
<use xlink:href="#glyph-0-18" x="458.046875" y="391.558594"/>
</g>
<g fill="rgb(0%, 0%, 0%)" fill-opacity="1">
<use xlink:href="#glyph-0-15" x="440.046875" y="414.816406"/>
<use xlink:href="#glyph-0-15" x="446.046875" y="414.816406"/>
<use xlink:href="#glyph-0-16" x="452.046875" y="414.816406"/>
<use xlink:href="#glyph-0-1" x="458.046875" y="414.816406"/>
</g>
<g fill="rgb(0%, 0%, 0%)" fill-opacity="1">
<use xlink:href="#glyph-2-0" x="38.347656" y="34.095703"/>
<use xlink:href="#glyph-2-1" x="47.347656" y="34.095703"/>
<use xlink:href="#glyph-2-2" x="50.347656" y="34.095703"/>
<use xlink:href="#glyph-2-3" x="56.347656" y="34.095703"/>
<use xlink:href="#glyph-2-4" x="61.347656" y="34.095703"/>
<use xlink:href="#glyph-2-5" x="68.347656" y="34.095703"/>
<use xlink:href="#glyph-2-1" x="73.347656" y="34.095703"/>
<use xlink:href="#glyph-2-6" x="76.347656" y="34.095703"/>
<use xlink:href="#glyph-2-7" x="83.347656" y="34.095703"/>
<use xlink:href="#glyph-2-8" x="90.347656" y="34.095703"/>
<use xlink:href="#glyph-2-9" x="93.347656" y="34.095703"/>
<use xlink:href="#glyph-2-10" x="97.347656" y="34.095703"/>
<use xlink:href="#glyph-2-11" x="102.347656" y="34.095703"/>
<use xlink:href="#glyph-2-12" x="110.347656" y="34.095703"/>
<use xlink:href="#glyph-2-12" x="118.347656" y="34.095703"/>
<use xlink:href="#glyph-2-13" x="126.347656" y="34.095703"/>
<use xlink:href="#glyph-2-14" x="134.347656" y="34.095703"/>
<use xlink:href="#glyph-2-15" x="138.347656" y="34.095703"/>
<use xlink:href="#glyph-2-13" x="146.347656" y="34.095703"/>
<use xlink:href="#glyph-2-15" x="154.347656" y="34.095703"/>
<use xlink:href="#glyph-2-16" x="162.347656" y="34.095703"/>
<use xlink:href="#glyph-2-17" x="170.347656" y="34.095703"/>
<use xlink:href="#glyph-2-9" x="175.347656" y="34.095703"/>
<use xlink:href="#glyph-2-7" x="179.347656" y="34.095703"/>
<use xlink:href="#glyph-2-18" x="186.347656" y="34.095703"/>
<use xlink:href="#glyph-2-19" x="194.347656" y="34.095703"/>
<use xlink:href="#glyph-2-9" x="202.347656" y="34.095703"/>
<use xlink:href="#glyph-2-20" x="206.347656" y="34.095703"/>
<use xlink:href="#glyph-2-20" x="214.347656" y="34.095703"/>
<use xlink:href="#glyph-2-21" x="222.347656" y="34.095703"/>
<use xlink:href="#glyph-2-9" x="229.347656" y="34.095703"/>
<use xlink:href="#glyph-2-22" x="233.347656" y="34.095703"/>
<use xlink:href="#glyph-2-5" x="241.347656" y="34.095703"/>
<use xlink:href="#glyph-2-4" x="246.347656" y="34.095703"/>
<use xlink:href="#glyph-2-23" x="253.347656" y="34.095703"/>
<use xlink:href="#glyph-2-24" x="256.347656" y="34.095703"/>
<use xlink:href="#glyph-2-6" x="263.347656" y="34.095703"/>
<use xlink:href="#glyph-2-3" x="270.347656" y="34.095703"/>
<use xlink:href="#glyph-2-1" x="275.347656" y="34.095703"/>
<use xlink:href="#glyph-2-4" x="278.347656" y="34.095703"/>
<use xlink:href="#glyph-2-18" x="285.347656" y="34.095703"/>
<use xlink:href="#glyph-2-2" x="293.347656" y="34.095703"/>
<use xlink:href="#glyph-2-9" x="299.347656" y="34.095703"/>
<use xlink:href="#glyph-2-10" x="303.347656" y="34.095703"/>
<use xlink:href="#glyph-2-15" x="308.347656" y="34.095703"/>
<use xlink:href="#glyph-2-13" x="316.347656" y="34.095703"/>
<use xlink:href="#glyph-2-15" x="324.347656" y="34.095703"/>
<use xlink:href="#glyph-2-25" x="332.347656" y="34.095703"/>
<use xlink:href="#glyph-2-14" x="340.347656" y="34.095703"/>
<use xlink:href="#glyph-2-15" x="344.347656" y="34.095703"/>
<use xlink:href="#glyph-2-11" x="352.347656" y="34.095703"/>
<use xlink:href="#glyph-2-13" x="360.347656" y="34.095703"/>
<use xlink:href="#glyph-2-13" x="368.347656" y="34.095703"/>
<use xlink:href="#glyph-2-17" x="376.347656" y="34.095703"/>
</g>
<g fill="rgb(0%, 0%, 0%)" fill-opacity="1">
<use xlink:href="#glyph-3-0" x="38.347656" y="16.342773"/>
<use xlink:href="#glyph-3-1" x="49.347656" y="16.342773"/>
<use xlink:href="#glyph-3-2" x="53.347656" y="16.342773"/>
<use xlink:href="#glyph-3-3" x="62.347656" y="16.342773"/>
<use xlink:href="#glyph-3-4" x="71.347656" y="16.342773"/>
<use xlink:href="#glyph-3-1" x="80.347656" y="16.342773"/>
<use xlink:href="#glyph-3-5" x="84.347656" y="16.342773"/>
<use xlink:href="#glyph-3-6" x="89.347656" y="16.342773"/>
<use xlink:href="#glyph-3-4" x="97.347656" y="16.342773"/>
<use xlink:href="#glyph-3-7" x="106.347656" y="16.342773"/>
<use xlink:href="#glyph-3-8" x="112.347656" y="16.342773"/>
<use xlink:href="#glyph-3-9" x="121.347656" y="16.342773"/>
<use xlink:href="#glyph-3-2" x="125.347656" y="16.342773"/>
<use xlink:href="#glyph-3-10" x="134.347656" y="16.342773"/>
<use xlink:href="#glyph-3-4" x="143.347656" y="16.342773"/>
<use xlink:href="#glyph-3-11" x="152.347656" y="16.342773"/>
<use xlink:href="#glyph-3-6" x="160.347656" y="16.342773"/>
<use xlink:href="#glyph-3-12" x="168.347656" y="16.342773"/>
<use xlink:href="#glyph-3-1" x="177.347656" y="16.342773"/>
<use xlink:href="#glyph-3-4" x="181.347656" y="16.342773"/>
<use xlink:href="#glyph-3-7" x="190.347656" y="16.342773"/>
<use xlink:href="#glyph-3-5" x="196.347656" y="16.342773"/>
<use xlink:href="#glyph-3-8" x="201.347656" y="16.342773"/>
<use xlink:href="#glyph-3-13" x="210.347656" y="16.342773"/>
<use xlink:href="#glyph-3-4" x="219.347656" y="16.342773"/>
<use xlink:href="#glyph-3-14" x="228.347656" y="16.342773"/>
<use xlink:href="#glyph-3-15" x="234.347656" y="16.342773"/>
<use xlink:href="#glyph-3-11" x="243.347656" y="16.342773"/>
</g>
</svg>
